<svg width="238" height="176" viewBox="0 0 238 176" fill="none" xmlns="http://www.w3.org/2000/svg">
<path d="M186.255 0H143.45V73.0999H186.255V0Z" fill="#E0E0E0"/>
<path d="M184.804 0H142V73.0999H184.804V0Z" fill="#EBEBEB"/>
<path d="M183.001 1.49597H143.842V71.604H183.001V1.49597Z" fill="#FAFAFA"/>
<path d="M175.358 10.593H151.29V62.5068H175.358V10.593Z" fill="#EBEBEB"/>
<path d="M151.29 44.151C151.251 39.2993 155.445 34.5688 160.109 33.8814C162.344 33.558 164.696 34.0027 166.773 33.1537C170.458 31.5769 171.634 26.5229 175.397 25.027L175.554 62.5473H151.29V44.151Z" fill="#E0E0E0"/>
<path d="M237.85 40.3757H204.923V75.7936H237.85V40.3757Z" fill="#E0E0E0"/>
<path d="M235.615 40.3757H202.689V75.7936H235.615V40.3757Z" fill="#FAFAFA"/>
<path d="M235.615 75.7936H202.689V40.3757H235.615V75.7936ZM202.689 75.7532H235.615V40.3757H202.689V75.7532Z" fill="#E0E0E0"/>
<path d="M231.186 45.1467H207.118V71.0227H231.186V45.1467Z" fill="#FAFAFA"/>
<path d="M207.118 71.1845C207.118 71.2249 206.922 71.4675 206.53 71.9123C206.138 72.3166 205.59 72.8826 205.002 73.5295C204.414 74.136 203.826 74.702 203.434 75.0659C203.042 75.4702 202.767 75.6724 202.728 75.6724C202.689 75.6319 202.924 75.3894 203.316 74.9446C203.708 74.5403 204.257 73.9743 204.845 73.3274C205.433 72.7209 206.021 72.1548 206.413 71.791C206.844 71.3866 207.079 71.1441 207.118 71.1845Z" fill="#E0E0E0"/>
<path d="M231.186 71.1036C231.225 71.1036 231.46 71.3057 231.891 71.71C232.283 72.1144 232.832 72.6804 233.459 73.2869C234.047 73.8933 234.596 74.4998 234.949 74.9041C235.341 75.3084 235.537 75.5915 235.537 75.6319C235.498 75.6723 235.262 75.4297 234.831 75.0254C234.439 74.6211 233.891 74.0551 233.263 73.4486C232.675 72.8421 232.127 72.2357 231.774 71.8313C231.382 71.427 231.147 71.144 231.186 71.1036Z" fill="#E0E0E0"/>
<path d="M231.107 45.1877C231.107 45.1473 231.303 44.9047 231.695 44.4599C232.087 44.0556 232.636 43.4896 233.224 42.8427C233.812 42.2362 234.4 41.6702 234.792 41.3063C235.184 40.902 235.458 40.6998 235.498 40.6998C235.537 40.7403 235.302 40.9828 234.91 41.4276C234.518 41.8319 233.969 42.3979 233.381 43.0448C232.793 43.6513 232.205 44.2174 231.813 44.5812C231.382 44.9856 231.147 45.2281 231.107 45.1877Z" fill="#E0E0E0"/>
<path d="M207.04 45.2679C207.001 45.2679 206.765 45.0658 206.334 44.6614C205.942 44.2571 205.394 43.6911 204.766 43.0846C204.178 42.4782 203.63 41.8717 203.277 41.4674C202.885 41.0631 202.689 40.78 202.689 40.7396C202.728 40.6992 202.963 40.9418 203.394 41.3461C203.786 41.7504 204.335 42.3164 204.962 42.9229C205.55 43.5294 206.099 44.1358 206.452 44.5402C206.844 44.9849 207.079 45.2275 207.04 45.2679Z" fill="#E0E0E0"/>
<path d="M231.107 71.0227C231.107 71.0227 231.107 70.9823 231.107 70.9014C231.107 70.8205 231.107 70.6992 231.107 70.5375C231.107 70.2141 231.107 69.7289 231.107 69.1224C231.107 67.9095 231.107 66.1305 231.068 63.8663C231.068 59.338 231.029 52.869 231.029 45.1466L231.107 45.2275C224.091 45.2275 215.859 45.2275 207.118 45.2275L207.236 45.1062C207.236 54.6076 207.236 63.5025 207.236 70.9823L207.157 70.9014C214.37 70.9014 220.328 70.9418 224.522 70.9418C226.639 70.9418 228.285 70.9418 229.422 70.9823C229.971 70.9823 230.402 70.9823 230.716 70.9823C230.872 70.9823 230.951 70.9823 231.068 70.9823C231.068 71.0227 231.107 71.0227 231.107 71.0227C231.107 71.0227 231.068 71.0227 230.99 71.0227C230.911 71.0227 230.794 71.0227 230.676 71.0227C230.363 71.0227 229.971 71.0227 229.383 71.0227C228.246 71.0227 226.6 71.0227 224.522 71.0631C220.328 71.0631 214.292 71.1036 207.079 71.1036H207.001V71.0227C207.001 63.5429 207.001 54.648 207.001 45.1466V45.0253H207.118C215.899 45.0253 224.13 45.0253 231.107 45.0253H231.186V45.1062C231.147 52.869 231.147 59.338 231.147 63.9068C231.147 66.1709 231.147 67.9499 231.107 69.1628C231.107 69.7693 231.107 70.2141 231.107 70.5375C231.107 70.6992 231.107 70.8205 231.107 70.9014C231.107 70.9823 231.107 71.0227 231.107 71.0227Z" fill="#E0E0E0"/>
<path d="M223.15 53.9203H215.115V62.2087H223.15V53.9203Z" fill="#EBEBEB"/>
<path d="M101.858 171.919C107.934 165.652 107.894 156.07 106.209 147.781C105.934 146.407 105.817 144.911 104.955 143.779C104.092 142.687 102.446 142.121 101.348 142.929C100.447 143.617 100.212 144.87 99.8195 146.002C99.31 147.458 98.3692 148.752 97.1933 149.722C96.4093 150.328 95.3902 150.814 94.4494 150.49C93.1559 150.045 92.7639 148.388 92.5287 147.013C92.0975 144.425 91.6664 141.838 91.2352 139.25C91 137.876 90.7648 136.46 90.1376 135.207C89.5105 133.954 88.3737 132.902 87.0018 132.781C85.669 132.66 84.2187 133.711 84.1795 135.086C84.1795 135.652 84.3755 136.218 84.4539 136.824C84.5323 137.39 84.3755 138.078 83.8659 138.361C83.3564 138.603 82.7684 138.32 82.298 137.997C80.6517 136.865 79.3974 135.207 78.2214 133.59C77.0455 131.973 75.8695 130.274 74.3408 128.981C72.8121 127.687 70.8522 126.797 68.9315 127.04C66.9716 127.283 65.1293 128.9 65.0117 130.921C64.8549 132.983 66.3052 134.762 67.7947 136.097C69.9898 138.118 72.4593 139.816 75.0856 141.11C75.5559 141.353 76.0655 141.595 76.3399 142.08C76.8103 142.97 76.1047 144.021 75.2816 144.506C74.3408 145.032 73.2433 145.113 72.2241 145.436C71.205 145.76 70.1466 146.447 69.9114 147.539C69.5978 149.075 71.009 150.328 72.3025 151.097C74.8896 152.633 77.751 153.684 80.6909 154.21C81.7492 154.412 82.8468 154.533 83.7483 155.099C84.6499 155.665 85.3555 156.838 85.0419 157.889C84.7283 158.94 83.5524 159.506 82.494 159.506C81.4357 159.506 80.4165 159.102 79.3582 158.9C77.3983 158.536 75.0072 159.102 74.1448 160.962C73.5568 162.175 73.7528 163.711 74.38 164.924C75.0072 166.137 75.9871 167.107 77.0063 167.956C80.5733 170.989 84.8851 173.172 89.4321 173.94C93.8614 174.628 97.8988 174.304 101.858 171.919Z" fill="#F5F5F5"/>
<path d="M98.8788 167.067C96.9581 163.064 94.4886 158.859 91.784 154.574C91.1176 153.482 90.412 152.431 89.7457 151.38C89.0793 150.328 88.4129 149.318 87.7074 148.347C86.2962 146.407 84.8067 144.628 83.3564 143.01C81.906 141.393 80.4557 139.897 79.0838 138.522C77.7118 137.148 76.4183 135.894 75.164 134.803C72.6945 132.619 70.5386 131.083 68.9707 130.072C68.1867 129.587 67.5987 129.223 67.1676 128.981C66.9716 128.859 66.8148 128.778 66.6972 128.698C66.5796 128.657 66.5404 128.617 66.5404 128.617C66.5404 128.617 66.5796 128.657 66.6972 128.738C66.8148 128.819 66.9716 128.9 67.1676 129.021C67.5595 129.264 68.1867 129.668 68.9315 130.153C70.4602 131.164 72.6161 132.7 75.0464 134.924C76.2615 136.016 77.5551 137.269 78.927 138.684C80.2989 140.059 81.7493 141.555 83.1996 143.172C84.6499 144.789 86.1394 146.568 87.5506 148.469C88.2561 149.439 88.9225 150.45 89.5889 151.501C90.2552 152.552 90.9216 153.603 91.6272 154.695C94.3318 158.981 96.8013 163.186 98.722 167.148" fill="#E0E0E0"/>
<path d="M87.6682 148.347C87.6682 148.347 87.7074 148.145 87.7074 147.741C87.7074 147.336 87.7074 146.77 87.6682 146.083C87.629 144.668 87.4722 142.727 87.3546 140.584C87.1978 138.442 87.0802 136.501 87.0802 135.086C87.0802 134.398 87.041 133.792 87.041 133.428C87.041 133.024 87.041 132.822 87.0018 132.822C87.0018 132.822 86.9626 133.024 86.9234 133.428C86.8842 133.832 86.8842 134.398 86.8842 135.086C86.8842 136.501 86.9234 138.442 87.0802 140.625C87.237 142.727 87.3938 144.668 87.4722 146.124C87.5114 146.77 87.5506 147.336 87.5898 147.781C87.629 148.145 87.6682 148.347 87.6682 148.347Z" fill="#E0E0E0"/>
<path d="M69.7938 148.186C69.7938 148.186 70.029 148.186 70.4994 148.145C70.9306 148.105 71.5969 148.024 72.4201 147.983C74.0272 147.862 76.2615 147.781 78.731 147.822C81.2005 147.862 83.4348 147.983 85.0419 148.105C85.8651 148.186 86.4922 148.226 86.9626 148.266C87.3938 148.307 87.6682 148.347 87.6682 148.307C87.6682 148.307 87.433 148.226 86.9626 148.145C86.5314 148.064 85.8651 147.983 85.0419 147.902C83.4348 147.7 81.2005 147.579 78.731 147.539C76.2615 147.498 74.0272 147.619 72.4201 147.781C71.5969 147.862 70.9698 147.943 70.4994 148.024C70.0682 148.145 69.7938 148.186 69.7938 148.186Z" fill="#E0E0E0"/>
<path d="M98.6044 166.784C98.6044 166.784 98.6436 166.703 98.6828 166.541C98.722 166.339 98.8004 166.137 98.8788 165.854C99.0356 165.248 99.2316 164.358 99.4668 163.266C99.9372 161.083 100.525 158.01 101.113 154.655C101.701 151.258 102.25 148.226 102.681 146.002C102.877 144.951 103.073 144.062 103.191 143.415C103.23 143.132 103.308 142.889 103.347 142.687C103.387 142.525 103.387 142.444 103.387 142.444C103.387 142.444 103.347 142.525 103.308 142.687C103.269 142.889 103.191 143.091 103.112 143.374C102.955 143.981 102.759 144.87 102.524 145.962C102.054 148.145 101.466 151.218 100.878 154.574C100.29 157.97 99.7412 161.002 99.31 163.226C99.114 164.277 98.918 165.167 98.8004 165.814C98.7612 166.097 98.6828 166.339 98.6436 166.541C98.6044 166.663 98.6044 166.784 98.6044 166.784Z" fill="#E0E0E0"/>
<path d="M74.3408 163.347C74.3408 163.347 74.4192 163.388 74.576 163.388C74.772 163.428 75.0072 163.469 75.2816 163.509C75.9479 163.59 76.8103 163.711 77.8686 163.873C80.0637 164.196 83.082 164.641 86.453 165.167C89.7848 165.692 92.8423 166.137 95.0374 166.38C96.1349 166.501 97.0365 166.622 97.6637 166.663C97.938 166.703 98.1732 166.703 98.3692 166.703C98.526 166.703 98.6044 166.703 98.6044 166.703C98.6044 166.703 98.526 166.663 98.3692 166.663C98.1732 166.622 97.938 166.582 97.6637 166.541C96.9973 166.46 96.1349 166.339 95.0766 166.177C92.8815 165.854 89.8632 165.409 86.4922 164.884C83.1604 164.358 80.1029 163.913 77.9078 163.671C76.8103 163.549 75.9087 163.428 75.2816 163.388C75.0072 163.347 74.772 163.347 74.576 163.347C74.4192 163.347 74.3408 163.347 74.3408 163.347Z" fill="#E0E0E0"/>
<path d="M211.934 121.191C213.777 120.221 215.972 120.099 218.01 120.423C219.107 120.625 220.244 120.948 221.028 121.797C221.773 122.646 221.93 124.142 221.067 124.87C220.558 125.315 219.852 125.355 219.186 125.355C217.579 125.355 215.815 125.032 214.521 126.043C213.777 126.609 213.306 127.539 212.444 127.822C211.581 128.105 210.641 127.579 210.17 126.77C209.7 125.962 209.7 124.991 209.896 124.061C209.857 124.142 210.092 122.161 211.934 121.191Z" fill="#206BC4"/>
<path d="M207.701 112.781C208.838 114.439 211.033 113.913 212.052 112.862C213.071 111.851 213.502 110.355 213.894 108.981C214.796 105.787 215.697 102.431 215.031 99.1558C214.835 98.1855 214.482 97.2151 213.816 96.4874C213.149 95.7596 212.13 95.3148 211.189 95.5979C210.092 95.8809 209.386 97.013 208.916 98.0642C207.466 101.177 206.682 104.654 206.682 108.132C206.642 109.749 206.838 111.447 207.701 112.781Z" fill="#206BC4"/>
<path d="M204.604 115.167C205.819 113.671 206.054 111.487 205.506 109.587C204.957 107.727 203.742 106.11 202.291 104.816C200.645 103.28 198.685 102.107 196.569 101.339C195.745 101.056 194.883 100.813 193.981 100.894C193.119 100.975 192.218 101.46 191.826 102.229C191.238 103.401 191.786 104.857 192.414 106.029C193.511 108.091 194.765 110.072 196.177 111.932C197.313 113.428 198.607 114.924 200.332 115.571C202.056 116.258 203.82 116.177 204.761 114.924" fill="#206BC4"/>
<path d="M207.622 137.849C207.662 137.849 207.662 137.566 207.74 137.08C207.779 136.514 207.858 135.827 207.936 135.018C208.014 134.169 208.171 133.118 208.367 131.986C208.602 130.854 208.955 129.641 209.426 128.428C209.896 127.215 210.484 126.083 211.189 125.194C211.895 124.304 212.679 123.657 213.424 123.293C214.169 122.929 214.835 122.768 215.305 122.687C215.776 122.646 216.05 122.606 216.05 122.566C216.05 122.525 215.776 122.525 215.305 122.566C214.835 122.606 214.129 122.727 213.345 123.091C212.561 123.455 211.699 124.102 210.993 125.032C210.249 125.921 209.661 127.094 209.151 128.347C208.681 129.601 208.328 130.814 208.093 131.986C207.858 133.118 207.779 134.169 207.701 135.059C207.622 135.948 207.622 136.636 207.583 137.121C207.622 137.566 207.622 137.849 207.622 137.849Z" fill="#263238"/>
<path d="M207.779 136.272C207.779 136.272 207.779 136.151 207.818 135.908C207.818 135.625 207.818 135.301 207.818 134.897C207.818 134.008 207.818 132.754 207.858 131.218C207.936 128.105 208.21 124.749 208.681 120.059C209.151 115.611 209.778 110.477 210.484 107.08C210.641 106.312 210.758 105.625 210.915 105.018C211.033 104.412 211.15 103.886 211.268 103.482C211.346 103.078 211.425 102.754 211.503 102.512C211.542 102.269 211.581 102.188 211.581 102.148C211.581 102.148 211.542 102.269 211.464 102.471C211.385 102.714 211.307 103.037 211.189 103.442C211.072 103.846 210.954 104.371 210.797 104.978C210.641 105.584 210.484 106.272 210.327 107.04C209.661 110.072 208.955 114.318 208.446 119.048C207.936 123.779 207.701 128.064 207.701 131.218C207.701 132.795 207.701 134.048 207.74 134.897C207.779 135.301 207.779 135.625 207.818 135.908C207.74 136.151 207.779 136.272 207.779 136.272Z" fill="#263238"/>
<path d="M207.818 127.983C207.858 127.983 207.818 127.619 207.818 126.932C207.779 126.245 207.701 125.274 207.505 124.102C207.309 122.929 207.034 121.514 206.603 119.978C206.407 119.291 205.976 117.593 204.918 115.086C203.546 111.69 201.625 108.9 199.979 107.161C199.587 106.716 199.156 106.393 198.803 106.07C198.607 105.908 198.45 105.746 198.293 105.625C198.137 105.504 197.98 105.423 197.862 105.301C197.313 104.938 197 104.735 197 104.735C196.961 104.816 198.215 105.584 199.783 107.323C201.351 109.062 203.193 111.811 204.565 115.207C205.349 117.026 205.859 118.684 206.251 120.059C206.682 121.595 206.995 122.97 207.191 124.142C207.387 125.315 207.505 126.285 207.583 126.973C207.74 127.579 207.779 127.983 207.818 127.983Z" fill="#263238"/>
<path d="M200.018 142.62L200.841 154.021H215.031L215.815 142.62H200.018Z" fill="#263238"/>
<path d="M217.54 138.132H198.646V142.62H217.54V138.132Z" fill="#263238"/>
<path d="M198.646 153.576V154.83H199.548H217.226V153.576H198.646Z" fill="#455A64"/>
<path d="M200.41 157.013L199.548 154.83H216.52L215.54 157.013H200.41Z" fill="#455A64"/>
<path d="M215.58 146.339C215.58 146.339 215.58 146.38 215.501 146.461C215.462 146.541 215.384 146.622 215.305 146.744C215.109 147.027 214.835 147.39 214.482 147.835L214.443 147.876L214.404 147.835C213.894 147.107 213.189 146.097 212.365 144.924H212.483C211.895 145.814 211.189 146.784 210.484 147.835L210.405 147.916L210.327 147.835C209.582 146.946 208.798 145.935 207.936 144.924H208.054C208.014 144.965 207.975 145.045 207.936 145.086C207.191 146.056 206.486 146.946 205.819 147.835L205.741 147.916L205.663 147.835C204.957 146.784 204.251 145.814 203.663 144.924H203.781C202.801 146.097 201.939 147.067 201.312 147.835L201.272 147.876L201.233 147.835C200.92 147.269 200.645 146.824 200.449 146.501C200.371 146.339 200.292 146.258 200.253 146.137C200.214 146.056 200.175 146.016 200.175 146.016C200.175 146.016 200.214 146.056 200.253 146.137C200.292 146.218 200.371 146.339 200.488 146.461C200.684 146.784 200.959 147.229 201.312 147.754H201.233C201.86 146.986 202.683 145.975 203.663 144.803L203.742 144.722L203.781 144.803C204.408 145.692 205.075 146.663 205.819 147.714H205.702C206.368 146.824 207.074 145.935 207.818 144.965C207.858 144.924 207.897 144.843 207.936 144.803L208.014 144.722L208.093 144.803C208.916 145.814 209.739 146.824 210.445 147.714H210.327C211.072 146.663 211.738 145.692 212.365 144.803L212.444 144.722L212.483 144.803C213.267 145.975 213.973 146.986 214.482 147.714H214.404C214.756 147.269 215.07 146.905 215.266 146.663C215.344 146.541 215.423 146.461 215.501 146.38C215.54 146.38 215.58 146.339 215.58 146.339Z" fill="#E0E0E0"/>
<path d="M216.011 142.539C216.011 142.579 212.444 142.62 208.054 142.62C203.663 142.62 200.096 142.579 200.096 142.539C200.096 142.498 203.663 142.458 208.054 142.458C212.483 142.458 216.011 142.498 216.011 142.539Z" fill="#455A64"/>
<path d="M216.756 154.951C216.756 154.992 212.875 155.033 208.132 155.033C203.35 155.033 199.508 154.992 199.508 154.951C199.508 154.911 203.389 154.87 208.132 154.87C212.875 154.87 216.756 154.911 216.756 154.951Z" fill="#263238"/>
<path d="M171.646 86.5042C171.333 85.1295 172.9 80.399 171.881 80.2777C170.588 80.1564 170.392 85.5338 170.313 86.019C170.274 86.5042 169.608 86.4233 169.647 86.019C169.725 85.4125 170.588 79.3074 169.294 79.3074C168.589 79.3074 168.55 80.6416 168.55 80.6416C168.55 80.6416 168.079 86.6659 167.452 86.6255C166.825 86.585 167.295 83.1888 167.334 81.895C167.413 80.682 166.786 79.9947 166.354 80.5203C165.727 81.2885 165.727 84.4017 165.649 85.6147C165.57 86.8276 165.257 90.3451 164.042 88.5662C162.827 86.8276 161.259 85.9381 160.671 85.9785C160.083 86.0594 160.004 86.9085 160.553 87.2319C161.023 87.5149 161.611 88.2023 162.082 88.7279C162.435 89.1726 162.709 89.6982 162.944 90.2238C163.14 90.5877 163.454 91.3155 163.571 92.3667C163.728 93.5392 164.395 94.5904 165.374 95.2373L165.296 104.86L165.022 109.631L172.273 112.218L171.333 95.2373C171.685 91.9624 173.096 87.8384 173.606 85.9381C174.429 82.9058 174.037 82.744 173.684 82.744C172.901 82.7036 171.96 87.8384 171.646 86.5042Z" fill="#A36957"/>
<path d="M170.705 90.6686C170.705 90.709 170.353 90.6686 169.804 90.8303C169.255 90.992 168.55 91.3559 168.04 92.0837C167.883 92.2858 167.805 92.488 167.687 92.6901L167.648 92.771L167.57 92.6901C167.099 92.1645 166.59 91.8411 166.198 91.6389C165.806 91.4368 165.57 91.3559 165.57 91.3559C165.57 91.3559 165.845 91.3963 166.237 91.5581C166.629 91.7198 167.178 92.0432 167.687 92.5688L167.57 92.6093C167.687 92.4071 167.805 92.1645 167.922 92.0028C168.197 91.6389 168.51 91.3559 168.863 91.1537C169.177 90.9516 169.529 90.8303 169.804 90.7494C170.078 90.6686 170.313 90.6686 170.47 90.6686C170.627 90.6281 170.705 90.6281 170.705 90.6686Z" fill="#7C3B29"/>
<path d="M170.353 95.1564C170.353 95.1969 169.686 95.44 168.785 95.44C167.883 95.4805 167.178 95.2779 167.217 95.2374C167.217 95.1969 167.922 95.3185 168.785 95.2779C169.647 95.2779 170.353 95.1159 170.353 95.1564Z" fill="#7C3B29"/>
<path d="M126.451 70.0486C126.608 67.5823 128.567 65.3586 130.919 64.9947C131.547 64.9138 132.174 64.9138 132.762 64.6308C133.232 64.4286 133.624 64.0243 134.055 63.7413C135.427 62.8114 137.465 63.0944 138.563 64.3882C139.621 65.5607 139.857 63.7817 142.208 64.9947C144.168 66.0055 143.306 67.6632 143.306 67.6632C145.227 67.4206 147.187 68.8357 147.696 70.7764C148.01 71.9893 147.853 73.5257 148.872 74.2535C149.342 74.6173 150.009 74.6578 150.479 75.0217C151.381 75.6686 151.538 77.0028 151.42 78.1349C151.302 79.267 151.028 80.4799 151.538 81.4907C152.322 83.1888 154.752 83.674 155.183 85.4934C155.379 86.3424 155.105 87.4341 155.732 88.0001C155.967 88.2427 156.32 88.3236 156.633 88.4853C157.927 89.0109 158.868 90.3451 158.985 91.7602C159.103 93.1753 158.397 94.6713 157.26 95.4395C156.947 95.6417 156.555 95.8438 156.437 96.2481C156.32 96.6929 156.633 97.0972 156.829 97.4611C157.652 98.8762 157.417 100.817 156.32 101.989C155.222 103.162 153.341 103.485 151.969 102.717C151.342 104.092 150.166 105.183 148.794 105.709C148.167 105.952 147.461 106.073 146.795 105.911C146.285 105.79 145.775 105.466 145.344 105.143C143.267 103.526 140.366 101.059 140.013 98.4314" fill="#263238"/>
<path d="M126.412 74.1726L126.333 72.2724L137.309 69.7656C140.68 69.2804 144.482 72.6767 144.795 76.1942C145.148 80.0756 145.423 84.887 145.07 87.798C144.325 93.701 140.013 94.5905 140.013 94.5905L140.17 100.413L127.588 100.979L126.412 74.1726Z" fill="#A36957"/>
<path d="M142.718 80.4799C142.757 80.8842 142.444 81.2077 142.052 81.2481C141.66 81.2885 141.307 81.0055 141.268 80.6012C141.228 80.1969 141.542 79.8734 141.934 79.833C142.326 79.7926 142.679 80.0756 142.718 80.4799Z" fill="#263238"/>
<path d="M143.659 78.7414C143.58 78.8222 142.992 78.4584 142.208 78.4584C141.424 78.4584 140.876 78.9031 140.758 78.8222C140.719 78.7818 140.797 78.5797 141.032 78.4179C141.268 78.2158 141.699 78.0136 142.169 78.0136C142.64 78.0136 143.071 78.1753 143.306 78.3371C143.58 78.4988 143.698 78.701 143.659 78.7414Z" fill="#263238"/>
<path d="M135.388 80.8438C135.427 81.2481 135.114 81.5716 134.722 81.612C134.33 81.6524 133.977 81.3694 133.938 80.9651C133.898 80.5608 134.212 80.2373 134.604 80.1969C134.996 80.1565 135.349 80.4395 135.388 80.8438Z" fill="#263238"/>
<path d="M135.937 79.1457C135.858 79.2265 135.27 78.8627 134.486 78.8627C133.702 78.8627 133.154 79.3074 133.036 79.2265C132.997 79.1861 133.075 79.0244 133.31 78.8222C133.546 78.6201 133.977 78.4179 134.447 78.4179C134.918 78.4179 135.349 78.5796 135.584 78.7414C135.898 78.9031 135.976 79.1052 135.937 79.1457Z" fill="#263238"/>
<path d="M138.955 85.0487C138.955 85.0082 139.425 84.8869 140.209 84.7656C140.405 84.7252 140.601 84.6848 140.64 84.5635C140.68 84.4018 140.601 84.1996 140.484 83.957C140.288 83.4718 140.053 82.9462 139.857 82.4206C138.955 80.1969 138.328 78.3775 138.406 78.337C138.485 78.2966 139.269 80.0756 140.17 82.2993C140.366 82.8654 140.601 83.3505 140.797 83.8761C140.876 84.1187 141.032 84.3613 140.915 84.6848C140.876 84.8465 140.719 84.9678 140.601 85.0082C140.484 85.0487 140.366 85.0487 140.249 85.0487C139.465 85.0891 138.955 85.0891 138.955 85.0487Z" fill="#263238"/>
<path d="M139.974 94.5905C139.974 94.5905 135.976 94.9544 132.095 92.7307C132.095 92.7307 134.134 96.7738 140.013 96.046L139.974 94.5905Z" fill="#7C3B29"/>
<path d="M138.681 86.9894C138.406 86.6255 137.897 86.4233 137.387 86.5042C137.034 86.5446 136.721 86.7468 136.525 87.0298C136.329 87.3128 136.29 87.7172 136.485 88.0002C136.721 88.2832 137.152 88.3641 137.505 88.2428C137.857 88.1215 138.171 87.8385 138.485 87.5959C138.563 87.515 138.641 87.4341 138.72 87.3533C138.798 87.232 138.798 87.1107 138.681 86.9894Z" fill="#7C3B29"/>
<path d="M136.681 85.6955C136.799 85.6955 136.838 86.5446 137.583 87.1511C138.328 87.7575 139.229 87.6362 139.229 87.7575C139.229 87.798 139.033 87.9193 138.641 87.9597C138.249 88.0001 137.701 87.8788 137.269 87.515C136.799 87.1511 136.603 86.6255 136.564 86.302C136.525 85.8977 136.603 85.6551 136.681 85.6955Z" fill="#263238"/>
<path d="M136.054 75.9516C135.976 76.1942 135.192 76.1133 134.29 76.2346C133.389 76.3559 132.644 76.6793 132.526 76.4772C132.487 76.3963 132.605 76.1537 132.879 75.9516C133.154 75.7494 133.624 75.5068 134.173 75.426C134.722 75.3451 135.231 75.426 135.584 75.5473C135.898 75.6686 136.054 75.8303 136.054 75.9516Z" fill="#263238"/>
<path d="M143.267 76.3964C143.149 76.5985 142.6 76.3964 141.934 76.4368C141.268 76.4368 140.719 76.5985 140.601 76.3964C140.562 76.3155 140.64 76.1134 140.876 75.9516C141.111 75.7899 141.503 75.6282 141.934 75.6282C142.365 75.6282 142.757 75.7899 142.992 75.9516C143.267 76.1134 143.345 76.3155 143.267 76.3964Z" fill="#263238"/>
<path d="M145.736 68.9975C144.952 71.0999 143.149 74.294 140.993 74.6983C138.837 75.0622 136.525 74.2131 135.114 72.4746C134.878 74.1727 133.114 75.1431 131.507 75.5069C130.371 75.7495 129.155 75.8304 128.058 75.4261C126.96 75.0218 125.98 74.0918 125.745 72.9193C125.51 71.7468 127 68.7145 128.136 68.4315" fill="#263238"/>
<path d="M130.135 100.21C130.175 102.111 128.881 103.93 127.156 104.537C127.313 106.073 126.294 107.65 124.844 108.054C123.393 108.458 121.747 107.65 121.12 106.275C120.963 105.911 120.845 105.507 120.571 105.183C119.983 104.496 118.886 104.739 118.023 104.496C116.455 104.092 115.671 102.192 115.711 100.534C115.711 100.21 115.75 99.887 115.671 99.5635C115.515 98.9166 115.005 98.4314 114.574 97.9058C112.888 95.763 113.28 92.4476 114.848 90.1835C115.358 89.4153 116.024 88.6471 115.906 87.7171C115.828 87.1915 115.554 86.7468 115.319 86.302C114.613 84.8061 114.966 82.8654 116.102 81.6524C116.259 81.4907 116.494 81.2886 116.534 81.046C116.573 80.8842 116.534 80.7225 116.494 80.5608C116.063 78.1349 117.788 75.5069 120.14 75.0621C120.297 75.0217 120.414 75.0217 120.532 74.9408C120.885 74.6982 120.845 74.2131 120.885 73.7683C120.924 72.6363 121.629 70.4934 122.413 69.7252C124.569 67.5419 126.882 68.9974 127.744 69.7252C127.744 69.7252 129.861 77.6093 129.665 79.1457C129.469 80.6417 128.646 84.4422 129.195 86.0999C129.743 87.7576 130.645 91.1538 130.096 92.7306C129.547 94.3074 130.135 100.21 130.135 100.21Z" fill="#263238"/>
<path d="M143.894 165.952C143.894 165.952 160.475 170.682 161.141 170.925C162.16 171.289 161.964 175.049 160.435 175.008C159.691 174.968 147.696 175.453 146.167 175.372C144.639 175.291 140.053 173.432 140.053 173.432L143.894 165.952Z" fill="#206BC4"/>
<path d="M150.832 172.502C150.91 172.502 151.028 171.612 151.577 170.682C152.086 169.712 152.792 169.186 152.753 169.105C152.713 169.025 151.89 169.51 151.342 170.521C150.754 171.531 150.754 172.502 150.832 172.502Z" fill="#263238"/>
<path d="M149.107 171.693C149.186 171.693 149.342 170.884 149.813 169.995C150.244 169.105 150.793 168.458 150.714 168.418C150.675 168.378 150.009 168.903 149.578 169.874C149.068 170.804 149.029 171.693 149.107 171.693Z" fill="#263238"/>
<path d="M147.461 171.248C147.539 171.248 147.5 170.399 147.853 169.429C148.206 168.459 148.833 167.893 148.754 167.812C148.715 167.731 147.97 168.256 147.579 169.308C147.187 170.359 147.383 171.289 147.461 171.248Z" fill="#263238"/>
<path d="M147.775 169.025C147.814 169.025 147.97 168.539 147.97 167.731C147.97 167.326 147.931 166.841 147.814 166.316C147.735 166.073 147.657 165.79 147.579 165.507C147.539 165.386 147.461 165.224 147.304 165.103C147.147 164.941 146.873 164.981 146.716 165.143C146.559 165.264 146.52 165.467 146.481 165.628C146.481 165.79 146.442 165.952 146.442 166.073C146.442 166.356 146.481 166.639 146.559 166.922C146.677 167.448 146.873 167.893 147.069 168.216C147.461 168.903 147.775 169.267 147.814 169.227C147.853 169.186 147.579 168.782 147.226 168.095C147.069 167.731 146.873 167.326 146.795 166.841C146.755 166.599 146.716 166.316 146.716 166.073C146.716 165.79 146.716 165.467 146.873 165.345C146.951 165.264 147.03 165.264 147.108 165.345C147.187 165.386 147.226 165.507 147.304 165.628C147.422 165.871 147.5 166.154 147.539 166.397C147.657 166.882 147.735 167.367 147.775 167.731C147.775 168.539 147.696 169.025 147.775 169.025Z" fill="#263238"/>
<path d="M147.735 168.863C147.735 168.822 147.343 168.701 146.677 168.701C146.324 168.701 145.932 168.741 145.501 168.863C145.305 168.903 145.07 168.984 144.835 169.105C144.599 169.227 144.364 169.55 144.443 169.874C144.521 170.197 144.795 170.399 145.031 170.48C145.305 170.561 145.54 170.52 145.775 170.48C146.246 170.359 146.599 170.157 146.873 169.914C147.422 169.469 147.657 169.146 147.657 169.146C147.618 169.105 147.304 169.388 146.755 169.752C146.481 169.914 146.128 170.116 145.736 170.197C145.54 170.237 145.305 170.237 145.109 170.197C144.913 170.157 144.756 169.995 144.717 169.793C144.678 169.591 144.795 169.429 144.952 169.308C145.148 169.186 145.344 169.146 145.54 169.065C145.932 168.944 146.324 168.903 146.677 168.863C147.343 168.822 147.735 168.903 147.735 168.863Z" fill="#263238"/>
<path d="M153.38 172.704C153.458 172.704 153.38 171.976 153.693 171.167C154.007 170.359 154.556 169.874 154.517 169.833C154.477 169.752 153.811 170.157 153.458 171.046C153.066 171.936 153.301 172.704 153.38 172.704Z" fill="#263238"/>
<path d="M141.777 173.472C141.777 173.472 142.012 173.593 142.404 173.795C142.836 173.957 143.463 174.2 144.247 174.402C145.815 174.806 148.088 175.049 150.597 175.008C153.066 174.968 155.34 174.847 156.947 174.806C157.731 174.766 158.358 174.725 158.868 174.685C159.338 174.644 159.573 174.644 159.573 174.604C159.573 174.604 159.338 174.564 158.868 174.564C158.358 174.564 157.731 174.564 156.947 174.564C155.261 174.604 153.066 174.644 150.597 174.685C148.127 174.725 145.893 174.523 144.286 174.159C142.718 173.836 141.816 173.431 141.777 173.472Z" fill="#263238"/>
<path d="M141.307 173.876C141.346 173.917 141.777 173.634 142.561 173.31C143.306 172.987 144.443 172.582 145.697 172.785C146.951 172.987 147.853 173.836 148.402 174.442C148.99 175.049 149.342 175.494 149.342 175.453C149.382 175.413 149.068 174.968 148.519 174.321C148.245 173.998 147.892 173.593 147.422 173.27C146.951 172.906 146.363 172.623 145.697 172.502C144.364 172.299 143.188 172.744 142.444 173.149C141.699 173.512 141.268 173.836 141.307 173.876Z" fill="#263238"/>
<g opacity="0.3">
<g opacity="0.3">
<g opacity="0.3">
<g opacity="0.3">
<g opacity="0.3">
<g opacity="0.3">
<g opacity="0.3">
<g opacity="0.3">
<path opacity="0.3" d="M143.894 165.952C143.894 165.952 160.475 170.682 161.141 170.925C162.16 171.289 161.964 175.049 160.435 175.008C159.691 174.968 147.696 175.453 146.167 175.372C144.639 175.291 140.053 173.432 140.053 173.432L143.894 165.952Z" fill="black"/>
</g>
</g>
</g>
</g>
</g>
</g>
</g>
</g>
<path d="M125.471 146.302L121.904 153.903C121.904 153.903 102.736 147.879 97.9146 148.162C93.0932 148.445 89.1342 150.426 88.1935 154.469C87.2527 158.512 87.1351 164.092 92.7404 167.973C98.385 171.855 126.372 173.998 126.372 173.998H137.465L155.575 149.375L152.674 146.949L125.471 146.302Z" fill="#263238"/>
<path d="M131.507 162.96C131.507 162.96 131.39 162.96 131.155 162.96C130.919 162.96 130.567 162.96 130.096 162.879C129.195 162.798 127.901 162.556 126.333 162.07C124.765 161.626 122.962 160.857 121.041 159.928C119.121 158.998 117.043 157.825 114.887 156.612C112.731 155.399 110.615 154.348 108.616 153.499C106.656 152.69 104.774 152.124 103.206 151.841C101.638 151.558 100.306 151.477 99.4041 151.518C98.9337 151.518 98.6201 151.558 98.385 151.558C98.1498 151.558 98.0322 151.558 98.0322 151.558C98.0322 151.558 98.1498 151.518 98.385 151.518C98.6201 151.518 98.9729 151.437 99.4433 151.437C100.345 151.396 101.678 151.437 103.285 151.72C104.892 152.003 106.734 152.529 108.733 153.337C110.732 154.146 112.849 155.237 115.005 156.41C117.161 157.623 119.238 158.795 121.159 159.725C123.08 160.696 124.883 161.423 126.412 161.909C127.94 162.394 129.234 162.677 130.135 162.798C130.567 162.879 130.919 162.879 131.155 162.919C131.351 162.96 131.507 162.96 131.507 162.96Z" fill="#455A64"/>
<path d="M144.599 171.976C148.167 170.521 167.726 164.132 174.664 155.844C176.585 153.539 176.938 151.154 176.546 148.971C175.566 143.472 170.666 139.793 165.57 141.855C164.865 142.138 163.179 142.825 162.474 143.189C160.592 144.24 129.783 164.375 129.783 164.375C129.783 164.375 135.153 175.17 134.996 175.574L144.599 171.976Z" fill="#263238"/>
<path d="M154.203 148.041C154.203 148.041 154.164 148.081 154.125 148.122C154.046 148.162 153.968 148.243 153.85 148.283C153.615 148.445 153.262 148.688 152.831 148.971C151.93 149.577 150.675 150.386 149.107 151.396C145.932 153.458 141.581 156.248 136.799 159.361C134.447 160.898 132.174 162.353 130.096 163.647L130.135 163.485C131.547 167.003 132.762 170.035 133.624 172.178C134.055 173.229 134.369 174.078 134.604 174.685C134.722 174.968 134.8 175.17 134.839 175.372C134.878 175.534 134.918 175.615 134.918 175.615C134.918 175.615 134.878 175.534 134.8 175.413C134.722 175.251 134.643 175.049 134.526 174.766C134.29 174.159 133.938 173.351 133.467 172.299C132.566 170.157 131.351 167.165 129.9 163.647L129.861 163.566L129.939 163.526C131.978 162.192 134.251 160.736 136.603 159.2C141.424 156.127 145.775 153.337 148.95 151.275C150.518 150.264 151.812 149.456 152.713 148.89C153.145 148.607 153.497 148.405 153.733 148.243C153.85 148.162 153.929 148.122 154.007 148.081C154.164 148.041 154.203 148.041 154.203 148.041Z" fill="#455A64"/>
<path d="M127.196 157.583C127.196 157.623 126.843 157.502 126.294 157.219C125.745 156.936 125.04 156.531 124.295 155.965C123.55 155.399 122.962 154.833 122.531 154.348C122.139 153.903 121.904 153.58 121.943 153.58C121.982 153.539 122.962 154.671 124.452 155.763C125.863 156.895 127.196 157.502 127.196 157.583Z" fill="#455A64"/>
<path d="M137.857 148.607C137.897 148.607 137.897 149.092 137.897 149.86C137.897 150.628 137.936 151.72 138.053 152.892C138.171 154.065 138.328 155.116 138.445 155.884C138.563 156.653 138.641 157.138 138.602 157.138C138.563 157.138 138.445 156.693 138.249 155.925C138.093 155.157 137.897 154.105 137.779 152.892C137.661 151.72 137.661 150.628 137.701 149.82C137.74 149.092 137.818 148.607 137.857 148.607Z" fill="#455A64"/>
<path d="M140.131 148.364C140.131 148.364 140.209 148.324 140.366 148.405C140.523 148.445 140.719 148.607 140.876 148.849C141.032 149.092 141.15 149.456 141.032 149.86C140.915 150.264 140.484 150.547 140.053 150.588C139.621 150.628 139.151 150.345 138.994 149.941C138.837 149.537 138.955 149.173 139.112 148.93C139.269 148.688 139.504 148.566 139.661 148.526C139.817 148.485 139.896 148.526 139.896 148.526C139.896 148.566 139.504 148.566 139.269 149.011C139.151 149.213 139.073 149.537 139.19 149.86C139.308 150.143 139.661 150.345 140.013 150.345C140.366 150.345 140.719 150.103 140.797 149.779C140.915 149.456 140.836 149.132 140.719 148.93C140.484 148.445 140.092 148.405 140.131 148.364Z" fill="#455A64"/>
<path d="M130.645 147.555C130.645 147.555 130.723 147.677 130.802 147.919C130.88 148.162 130.959 148.566 130.959 149.051C130.959 149.537 130.841 150.103 130.606 150.709C130.371 151.275 129.939 151.882 129.312 152.286C128.724 152.69 128.019 152.892 127.392 152.892C126.764 152.933 126.216 152.812 125.784 152.609C125.353 152.448 125.04 152.205 124.844 152.043C124.648 151.882 124.569 151.76 124.569 151.76C124.608 151.72 125 152.165 125.824 152.488C126.255 152.65 126.764 152.731 127.352 152.69C127.94 152.65 128.567 152.488 129.116 152.084C129.665 151.679 130.096 151.154 130.331 150.628C130.567 150.103 130.684 149.537 130.723 149.092C130.88 148.122 130.606 147.555 130.645 147.555Z" fill="#455A64"/>
<path d="M148.911 151.316C148.911 151.356 148.637 151.356 148.167 151.194C147.735 151.033 147.147 150.669 146.755 150.062C146.363 149.456 146.285 148.768 146.324 148.283C146.363 147.798 146.481 147.555 146.52 147.555C146.559 147.555 146.481 147.838 146.481 148.283C146.481 148.728 146.599 149.334 146.951 149.9C147.304 150.467 147.814 150.83 148.206 150.992C148.637 151.235 148.911 151.275 148.911 151.316Z" fill="#455A64"/>
<path d="M158.476 166.397C158.476 166.397 158.515 166.357 158.593 166.316C158.672 166.276 158.789 166.195 158.946 166.155C159.26 165.993 159.73 165.791 160.318 165.467C161.494 164.861 163.179 164.012 165.257 162.88C167.295 161.748 169.725 160.292 172.077 158.19C173.253 157.138 174.39 155.925 175.331 154.51C176.272 153.095 176.624 151.235 176.507 149.416C176.428 148.526 176.232 147.637 175.84 146.828C175.684 146.424 175.448 146.06 175.213 145.696C174.978 145.332 174.704 145.009 174.39 144.685C173.802 144.079 173.175 143.513 172.548 142.987C171.921 142.462 171.293 141.977 170.549 141.774C169.804 141.532 169.059 141.532 168.354 141.532C167.609 141.532 166.903 141.613 166.237 141.774C164.904 142.057 163.728 142.583 162.67 143.149C160.631 144.322 158.985 145.252 157.809 145.898C157.26 146.222 156.79 146.464 156.476 146.667C156.32 146.747 156.202 146.828 156.124 146.869C156.045 146.909 156.006 146.95 156.006 146.909C156.006 146.909 156.045 146.869 156.124 146.828C156.202 146.788 156.32 146.707 156.476 146.626C156.79 146.464 157.221 146.181 157.77 145.858C158.907 145.211 160.553 144.2 162.591 143.028C163.611 142.462 164.826 141.896 166.158 141.613C166.825 141.451 167.53 141.37 168.275 141.37C169.02 141.37 169.765 141.411 170.549 141.613C171.333 141.815 171.999 142.34 172.587 142.866C173.214 143.392 173.841 143.958 174.429 144.564C174.704 144.888 175.017 145.211 175.252 145.575C175.488 145.939 175.723 146.343 175.919 146.747C176.272 147.556 176.507 148.486 176.585 149.416C176.703 151.276 176.311 153.136 175.37 154.591C174.39 156.006 173.253 157.219 172.077 158.27C169.725 160.373 167.295 161.788 165.218 162.92C163.14 164.052 161.455 164.901 160.24 165.467C159.652 165.75 159.181 165.952 158.868 166.114C158.711 166.195 158.593 166.235 158.515 166.276C158.515 166.397 158.476 166.397 158.476 166.397Z" fill="#455A64"/>
<path d="M131.076 166.073C131.076 166.073 114.417 170.601 113.751 170.844C112.731 171.208 112.888 174.968 114.417 174.928C115.162 174.928 127.156 175.534 128.685 175.453C130.214 175.372 134.29 173.755 134.29 173.755L131.076 166.073Z" fill="#206BC4"/>
<path d="M124.099 172.502C124.02 172.502 123.903 171.612 123.393 170.642C122.884 169.671 122.178 169.105 122.257 169.065C122.296 168.984 123.119 169.51 123.668 170.52C124.177 171.572 124.177 172.542 124.099 172.502Z" fill="#263238"/>
<path d="M125.824 171.733C125.745 171.733 125.588 170.925 125.157 170.035C124.726 169.146 124.216 168.499 124.256 168.459C124.295 168.418 124.961 168.984 125.392 169.914C125.863 170.844 125.902 171.733 125.824 171.733Z" fill="#263238"/>
<path d="M127.47 171.289C127.392 171.289 127.47 170.44 127.117 169.469C126.764 168.499 126.176 167.933 126.216 167.852C126.255 167.771 127 168.337 127.352 169.348C127.744 170.44 127.548 171.329 127.47 171.289Z" fill="#263238"/>
<path d="M127.196 169.105C127.156 169.105 127.039 168.62 127.039 167.812C127.039 167.407 127.078 166.922 127.235 166.437C127.313 166.194 127.392 165.911 127.509 165.628C127.548 165.507 127.627 165.345 127.784 165.224C127.94 165.103 128.215 165.103 128.371 165.264C128.528 165.386 128.567 165.588 128.567 165.75C128.567 165.911 128.607 166.073 128.567 166.194C128.567 166.477 128.528 166.76 128.45 167.043C128.332 167.569 128.136 168.014 127.94 168.337C127.548 169.025 127.196 169.388 127.196 169.348C127.156 169.308 127.431 168.944 127.784 168.216C127.94 167.852 128.136 167.448 128.215 166.963C128.254 166.72 128.293 166.437 128.293 166.194C128.293 165.911 128.293 165.588 128.136 165.467C128.058 165.386 127.98 165.386 127.901 165.426C127.823 165.467 127.784 165.588 127.705 165.709C127.588 165.952 127.509 166.235 127.431 166.477C127.313 166.963 127.235 167.407 127.196 167.812C127.156 168.58 127.235 169.105 127.196 169.105Z" fill="#263238"/>
<path d="M127.235 168.903C127.235 168.863 127.627 168.742 128.293 168.742C128.646 168.742 129.038 168.782 129.469 168.903C129.665 168.984 129.9 169.025 130.135 169.186C130.371 169.308 130.606 169.631 130.488 169.954C130.41 170.278 130.135 170.48 129.9 170.561C129.626 170.642 129.391 170.601 129.155 170.561C128.685 170.44 128.332 170.197 128.097 169.995C127.588 169.55 127.313 169.227 127.352 169.186C127.392 169.146 127.705 169.429 128.215 169.833C128.489 170.035 128.842 170.197 129.234 170.318C129.43 170.359 129.665 170.359 129.861 170.318C130.057 170.278 130.214 170.116 130.253 169.914C130.292 169.712 130.175 169.55 130.018 169.429C129.822 169.308 129.626 169.227 129.43 169.186C129.038 169.065 128.646 168.984 128.332 168.984C127.627 168.903 127.235 168.984 127.235 168.903Z" fill="#263238"/>
<path d="M121.551 172.663C121.473 172.663 121.551 171.936 121.237 171.127C120.924 170.318 120.375 169.833 120.453 169.793C120.493 169.712 121.159 170.157 121.512 171.046C121.825 171.895 121.59 172.704 121.551 172.663Z" fill="#263238"/>
<path d="M133.114 173.593C133.114 173.593 132.879 173.715 132.487 173.917C132.056 174.078 131.429 174.321 130.645 174.483C129.038 174.887 126.804 175.089 124.295 175.008C121.825 174.968 119.552 174.806 117.945 174.725C117.161 174.685 116.534 174.644 116.024 174.604C115.554 174.564 115.319 174.523 115.319 174.523C115.319 174.523 115.554 174.483 116.024 174.483C116.534 174.483 117.161 174.523 117.945 174.523C119.63 174.564 121.825 174.644 124.295 174.725C126.764 174.766 128.999 174.604 130.606 174.281C132.174 173.957 133.075 173.553 133.114 173.593Z" fill="#263238"/>
<path d="M133.585 173.998C133.546 174.038 133.114 173.755 132.33 173.391C131.586 173.027 130.449 172.623 129.195 172.825C127.94 172.987 127.039 173.876 126.451 174.442C125.863 175.049 125.51 175.453 125.471 175.453C125.432 175.413 125.745 174.968 126.294 174.321C126.568 173.998 126.921 173.634 127.392 173.27C127.862 172.946 128.45 172.623 129.116 172.542C130.449 172.34 131.625 172.825 132.37 173.229C133.193 173.634 133.624 173.998 133.585 173.998Z" fill="#263238"/>
<path d="M116.926 174.523C116.886 174.483 117.043 174.281 117.161 173.876C117.278 173.472 117.396 172.906 117.318 172.259C117.2 171.612 116.926 171.127 116.651 170.804C116.377 170.48 116.181 170.318 116.22 170.278C116.22 170.238 116.494 170.359 116.769 170.682C117.082 171.006 117.396 171.531 117.514 172.219C117.631 172.906 117.474 173.512 117.318 173.917C117.161 174.362 116.965 174.564 116.926 174.523Z" fill="#263238"/>
<path d="M130.331 99.3613L121.786 101.828L124.569 129.321C124.569 129.321 122.962 139.146 122.962 141.693C122.962 145.049 125.471 146.302 125.471 146.302L152.831 147.151L154.242 145.898C154.948 145.008 155.301 143.876 155.144 142.744L150.048 100.817L140.523 98.674L130.331 99.3613Z" fill="#206BC4"/>
<path d="M124.569 129.281C124.569 129.281 124.53 129.2 124.53 129.078C124.491 128.917 124.452 128.715 124.412 128.472C124.334 127.946 124.177 127.178 124.02 126.248C123.707 124.348 123.276 121.76 122.766 118.93C122.296 116.06 121.865 113.472 121.551 111.612C121.394 110.682 121.277 109.914 121.198 109.388C121.159 109.146 121.12 108.944 121.12 108.782C121.12 108.661 121.081 108.58 121.12 108.58C121.12 108.58 121.159 108.661 121.159 108.782C121.198 108.944 121.237 109.146 121.277 109.388C121.355 109.914 121.512 110.682 121.669 111.612C121.982 113.512 122.413 116.1 122.923 118.93C123.393 121.801 123.824 124.388 124.138 126.248C124.295 127.178 124.412 127.946 124.491 128.472C124.53 128.715 124.569 128.917 124.569 129.078C124.569 129.2 124.569 129.281 124.569 129.281Z" fill="#263238"/>
<path d="M141.738 99.1996C141.738 99.1996 141.62 99.3209 141.346 99.5231C141.228 99.604 141.032 99.7252 140.836 99.8465C140.64 99.9678 140.405 100.089 140.131 100.21C139.582 100.453 138.955 100.696 138.171 100.817C137.426 100.979 136.564 101.059 135.702 101.1C134.8 101.14 133.977 101.1 133.232 101.019C132.487 100.979 131.782 100.898 131.233 100.736C130.684 100.615 130.214 100.453 129.939 100.291C129.783 100.21 129.665 100.17 129.626 100.089C129.547 100.049 129.508 100.008 129.508 100.008C129.508 100.008 129.665 100.089 129.979 100.21C130.292 100.332 130.723 100.493 131.272 100.615C131.821 100.736 132.526 100.817 133.271 100.857C134.016 100.898 134.878 100.938 135.741 100.938C136.603 100.898 137.465 100.817 138.21 100.696C138.955 100.534 139.621 100.332 140.131 100.13C141.15 99.6848 141.699 99.1592 141.738 99.1996Z" fill="#263238"/>
<path d="M150.558 141.572C150.558 141.572 150.479 141.572 150.362 141.612C150.205 141.653 150.048 141.653 149.813 141.693C149.578 141.733 149.303 141.774 148.95 141.814C148.598 141.855 148.245 141.895 147.814 141.895C146.951 141.976 145.971 141.976 144.835 141.976C143.737 141.936 142.483 141.855 141.189 141.733C139.896 141.572 138.681 141.329 137.622 141.087C136.525 140.844 135.545 140.561 134.761 140.278C134.369 140.157 134.016 140.035 133.663 139.914C133.35 139.793 133.075 139.712 132.84 139.591C132.644 139.51 132.448 139.429 132.33 139.388C132.213 139.348 132.174 139.308 132.174 139.308C132.174 139.308 132.252 139.308 132.37 139.348C132.487 139.388 132.683 139.469 132.879 139.51C133.114 139.591 133.389 139.671 133.702 139.793C134.016 139.914 134.369 140.035 134.8 140.157C135.623 140.399 136.564 140.682 137.661 140.925C138.759 141.167 139.974 141.37 141.228 141.531C142.522 141.693 143.737 141.774 144.835 141.814C145.932 141.855 146.951 141.814 147.775 141.774C148.206 141.774 148.558 141.733 148.911 141.693C149.264 141.653 149.538 141.653 149.774 141.612C150.009 141.612 150.166 141.572 150.322 141.572C150.518 141.572 150.558 141.572 150.558 141.572Z" fill="#263238"/>
<path d="M153.733 118.041C153.733 118.041 153.693 117.919 153.615 117.677C153.537 117.434 153.458 117.07 153.341 116.626C153.105 115.736 152.792 114.483 152.517 113.108C152.204 111.733 151.969 110.48 151.812 109.55C151.734 109.105 151.694 108.701 151.655 108.459C151.616 108.216 151.616 108.054 151.616 108.054C151.616 108.054 151.655 108.175 151.734 108.459C151.773 108.742 151.851 109.105 151.969 109.55C152.165 110.44 152.4 111.733 152.713 113.108C153.027 114.483 153.301 115.736 153.497 116.626C153.576 117.07 153.693 117.394 153.733 117.677C153.733 117.879 153.772 118.041 153.733 118.041Z" fill="#263238"/>
<g opacity="0.3">
<g opacity="0.3">
<g opacity="0.3">
<g opacity="0.3">
<path opacity="0.3" d="M133.31 100.615C133.663 101.828 133.35 103.647 133.506 104.739C134.173 109.146 134.486 113.593 134.212 118.041C134.212 118.283 134.173 118.526 134.251 118.768C134.33 118.971 134.486 119.132 134.604 119.334C135.466 120.507 135.701 122.084 135.506 123.58C135.349 125.035 134.8 126.45 134.251 127.825C134.212 126.653 134.29 124.874 134.369 123.701C134.369 123.458 134.486 123.62 134.526 123.378C134.565 121.963 134.33 120.628 133.35 119.617C133.154 119.415 132.918 119.213 132.801 118.971C132.683 118.728 132.644 118.485 132.605 118.202C132.017 113.229 131.586 108.256 131.39 103.243C131.39 102.96 131.39 102.636 131.547 102.434C131.664 102.272 131.899 102.192 132.095 102.07C132.448 101.828 132.683 101.383 133.114 101.181" fill="black"/>
</g>
</g>
</g>
</g>
<path d="M121.747 101.828C121.747 101.828 113.947 103.728 115.828 115.817C116.494 120.062 117.788 126.37 120.493 132.96C121.786 136.073 124.687 138.216 127.94 137.771C129.351 137.569 130.763 137.812 131.703 137.205C133.154 136.316 133.781 133.283 134.055 130.008C134.251 127.785 134.173 125.48 134.447 123.58C134.918 120.467 133.546 119.011 131.782 118.647L124.883 117.232L124.491 120.992L121.747 101.828Z" fill="#206BC4"/>
<path d="M127.274 125.884C127.274 125.884 127.392 126.046 127.666 126.248C127.94 126.45 128.371 126.693 128.959 126.774C129.547 126.855 130.253 126.774 130.998 126.491C131.743 126.208 132.566 125.803 133.193 125.197C133.859 124.55 134.212 123.701 134.33 122.933C134.447 122.124 134.33 121.396 134.094 120.83C133.624 119.698 132.958 119.213 132.997 119.173C132.997 119.173 133.193 119.254 133.428 119.496C133.663 119.739 134.016 120.143 134.29 120.709C134.565 121.275 134.722 122.084 134.604 122.933C134.486 123.782 134.094 124.671 133.389 125.399C132.683 126.086 131.821 126.45 131.076 126.733C130.292 127.016 129.547 127.097 128.92 126.976C128.293 126.855 127.862 126.572 127.588 126.329C127.352 126.086 127.235 125.884 127.274 125.884Z" fill="#263238"/>
<path d="M120.101 131.909C120.14 131.909 120.258 132.272 120.571 132.96C120.885 133.607 121.433 134.537 122.335 135.426C123.237 136.316 124.53 137.205 126.176 137.609C127.784 138.014 129.704 137.973 131.468 137.246C132.37 136.882 132.683 135.871 132.997 135.022C133.31 134.132 133.506 133.243 133.663 132.394C133.938 130.696 134.016 129.119 134.094 127.825C134.173 126.531 134.251 125.48 134.33 124.712C134.369 124.388 134.369 124.105 134.408 123.863C134.447 123.661 134.447 123.58 134.447 123.58C134.447 123.58 134.447 123.701 134.447 123.863C134.447 124.105 134.447 124.388 134.408 124.712C134.369 125.48 134.33 126.531 134.29 127.825C134.212 129.119 134.173 130.696 133.898 132.434C133.781 133.283 133.546 134.213 133.232 135.103C133.075 135.547 132.879 135.992 132.644 136.437C132.409 136.882 132.017 137.286 131.547 137.488C129.704 138.297 127.744 138.297 126.059 137.852C124.373 137.407 123.08 136.518 122.178 135.547C121.277 134.617 120.728 133.647 120.453 133C120.297 132.677 120.218 132.394 120.14 132.192C120.101 132.03 120.062 131.909 120.101 131.909Z" fill="#263238"/>
<path d="M122.688 126.693C122.649 126.693 122.649 126.127 122.688 125.237C122.727 124.348 122.805 123.095 122.923 121.76C122.962 121.073 123.041 120.426 123.08 119.82C123.158 119.213 123.315 118.688 123.629 118.283C123.903 117.919 124.256 117.717 124.53 117.677C124.765 117.636 124.922 117.677 124.922 117.677C124.922 117.717 124.765 117.677 124.569 117.758C124.334 117.839 124.06 118 123.825 118.364C123.315 119.051 123.354 120.345 123.237 121.72C123.119 123.095 123.001 124.308 122.923 125.197C122.805 126.127 122.727 126.693 122.688 126.693Z" fill="#263238"/>
<path d="M125.118 113.836C125.04 113.472 124.922 112.906 124.804 112.219C124.53 110.844 124.099 108.984 123.629 106.922C123.393 105.871 123.197 104.901 122.884 104.011C122.57 103.122 122.178 102.394 121.747 101.828L121.59 101.949C122.021 102.475 122.374 103.202 122.649 104.092C122.923 104.941 123.119 105.952 123.354 106.963C123.825 109.025 124.256 110.884 124.608 112.259C124.765 112.946 124.922 113.472 125 113.836C125.118 114.2 125.157 114.402 125.196 114.402C125.236 114.442 125.196 114.24 125.118 113.836Z" fill="#263238"/>
<g opacity="0.3">
<g opacity="0.3">
<g opacity="0.3">
<g opacity="0.3">
<path opacity="0.3" d="M125.196 116.464C124.569 116.423 123.942 116.706 123.433 117.07C122.296 117.879 121.473 119.092 121.12 120.467C120.767 121.841 120.845 123.297 121.316 124.631C121.473 125.035 121.747 125.52 122.178 125.52C122.688 125.48 122.884 124.833 122.962 124.348C123.158 122.933 123.354 121.518 123.55 120.062C123.629 119.577 123.668 119.092 123.903 118.647C124.138 118.202 124.569 117.879 125.04 117.919C125.079 117.394 125.118 116.909 125.157 116.383" fill="black"/>
</g>
</g>
</g>
</g>
<path d="M171.725 122.933C171.725 122.933 173.175 120.669 173.332 117.353C173.488 114.038 172.548 111.208 172.548 111.208L164.238 108.539L164.199 111.41L171.725 122.933Z" fill="#206BC4"/>
<path d="M164.199 111.41L150.048 100.857V101.585L151.577 118.041C151.577 118.041 163.297 123.458 166.394 124.267C169.49 125.076 171.725 122.973 171.725 122.973L164.199 111.41Z" fill="#206BC4"/>
<path d="M168.393 119.415C168.393 119.415 168.275 119.375 168.079 119.254C167.883 119.132 167.609 118.93 167.295 118.607C166.668 118.041 165.962 117.07 165.414 115.898C164.865 114.725 164.551 113.553 164.316 112.744C164.199 112.34 164.12 111.976 164.081 111.774C164.042 111.531 164.003 111.41 164.042 111.41C164.081 111.41 164.238 111.895 164.473 112.704C164.708 113.512 165.061 114.644 165.61 115.817C166.158 116.989 166.825 117.919 167.413 118.526C168.001 119.092 168.432 119.375 168.393 119.415Z" fill="#263238"/>
<path d="M172.509 113.27C172.509 113.27 172.391 113.27 172.156 113.27C171.921 113.27 171.568 113.229 171.176 113.148C170.353 113.027 169.216 112.704 168.04 112.138C166.864 111.572 165.923 110.884 165.257 110.318C164.943 110.035 164.708 109.793 164.551 109.59C164.395 109.429 164.316 109.307 164.316 109.307C164.355 109.267 164.708 109.671 165.374 110.197C166.041 110.723 166.982 111.41 168.158 111.976C169.294 112.542 170.431 112.865 171.254 113.027C171.999 113.189 172.548 113.229 172.509 113.27Z" fill="#263238"/>
<path d="M164.826 118.041C164.826 118.041 164.591 117.717 164.395 117.151C164.159 116.545 164.003 115.696 163.924 114.766C163.846 113.795 163.885 112.946 163.924 112.34C163.963 111.733 164.003 111.329 164.042 111.329C164.081 111.329 164.081 111.733 164.081 112.34C164.081 112.946 164.042 113.836 164.12 114.766C164.199 115.696 164.355 116.545 164.512 117.111C164.708 117.677 164.865 118 164.826 118.041Z" fill="#263238"/>
<path d="M149.852 107.165C149.852 107.165 149.93 107.326 150.009 107.609C150.087 107.892 150.205 108.337 150.322 108.863C150.597 109.914 150.91 111.37 151.263 112.987C151.577 114.604 151.851 116.1 152.008 117.151C152.086 117.677 152.165 118.122 152.204 118.405C152.243 118.688 152.243 118.89 152.243 118.89C152.243 118.89 152.204 118.728 152.126 118.445C152.047 118.122 151.969 117.677 151.89 117.192C151.655 116.1 151.381 114.644 151.067 113.027C150.754 111.45 150.44 109.995 150.205 108.903C150.087 108.418 150.009 107.973 149.93 107.65C149.852 107.326 149.813 107.165 149.852 107.165Z" fill="#263238"/>
<path d="M124.765 118.768L126.49 98.9571L132.252 101.302L132.997 121.437C132.997 121.437 131.155 124.308 128.058 123.135C124.922 121.963 124.765 118.768 124.765 118.768Z" fill="#A36957"/>
<path d="M125.902 81.6121L136.642 91.3965L134.682 98.6741L133.898 98.9167L124.53 88.9706L125.118 81.8547L125.902 81.6121Z" fill="#263238"/>
<path d="M125.118 81.8546L135.858 91.5986L133.898 98.9167L123.746 89.2131L125.118 81.8546Z" fill="#455A64"/>
<path d="M132.487 101.949C132.487 101.949 133.585 100.736 133.585 99.2401C133.546 97.7442 133.154 94.1458 133.154 94.1458C133.154 94.1458 135.035 90.1026 134.957 89.5366C134.918 89.011 134.839 89.011 134.173 89.2131C133.506 89.4153 131.429 93.135 131.429 93.135L130.763 90.3857C130.763 90.3857 132.487 87.515 132.644 87.1107C132.801 86.7064 132.997 86.383 132.566 86.3425C132.134 86.3021 128.881 89.577 128.881 89.577L129.155 92.5689C129.155 92.5689 129.077 92.8115 128.607 92.3668C128.136 91.9625 128.254 88.3641 128.254 88.3641C128.254 88.3641 129.351 86.2617 129.351 85.9382C129.312 85.6148 129.547 85.2913 129.351 84.7657C129.116 84.2401 128.489 84.8466 128.489 84.8466L126.333 87.7576L125.549 84.887C125.549 84.887 125.588 84.2805 124.804 84.2805L125.118 93.6606L127.078 100.857L132.487 101.949Z" fill="#A36957"/>
<path d="M132.997 121.477C132.997 121.477 132.997 121.356 132.958 121.114C132.958 120.871 132.918 120.507 132.918 120.062C132.879 119.132 132.84 117.798 132.762 116.14C132.644 112.744 132.448 107.852 132.213 101.949V101.909L132.252 101.868C132.683 101.464 133.075 100.938 133.31 100.332C133.546 99.7253 133.585 99.0784 133.546 98.3911C133.467 97.0164 133.31 95.6013 133.114 94.1458V94.1054V94.0649C133.467 93.2967 133.82 92.4881 134.173 91.6795C134.33 91.2752 134.526 90.8709 134.682 90.4261C134.761 90.224 134.839 90.0218 134.878 89.7792L134.918 89.6175C134.918 89.5771 134.918 89.5366 134.918 89.4962C134.918 89.3749 134.878 89.2536 134.878 89.2132C134.918 89.1323 134.604 89.2132 134.408 89.294C134.29 89.3345 134.251 89.3749 134.173 89.4153C134.094 89.4962 134.016 89.5771 133.938 89.6579C133.624 89.9814 133.389 90.3857 133.114 90.7496C132.605 91.5178 132.095 92.3264 131.625 93.1755L131.468 93.4585L131.39 93.135C131.155 92.286 130.959 91.3156 130.723 90.3857V90.3453L130.763 90.3048C131.037 89.8197 131.351 89.3345 131.625 88.8089C131.978 88.2428 132.33 87.6364 132.605 87.0703C132.644 86.9086 132.722 86.7469 132.762 86.6256C132.801 86.5447 132.762 86.5043 132.762 86.5447C132.762 86.5447 132.683 86.5043 132.644 86.5043C132.644 86.5043 132.566 86.5447 132.487 86.5851C132.409 86.6256 132.37 86.666 132.291 86.7064C132.174 86.7873 132.017 86.9086 131.899 86.9895C130.919 87.8385 129.979 88.728 129.077 89.6579L129.116 89.5366C129.195 90.5474 129.273 91.5582 129.391 92.5286V92.569V92.6094C129.351 92.7711 129.195 92.7711 129.116 92.7711C129.038 92.7711 128.999 92.7307 128.92 92.6903C128.803 92.6498 128.724 92.569 128.646 92.4881C128.45 92.3264 128.411 92.0838 128.371 91.8817C128.293 91.4773 128.254 91.073 128.254 90.6687C128.215 89.8601 128.215 89.0919 128.254 88.3237V88.2833V88.2428C128.646 87.5151 129.038 86.7469 129.312 86.0191C129.312 85.9787 129.351 85.9382 129.351 85.8978C129.351 85.8574 129.351 85.7765 129.351 85.7361C129.351 85.6148 129.391 85.5339 129.391 85.4126C129.43 85.2105 129.43 85.0488 129.391 84.887C129.312 84.6849 129.273 84.604 129.116 84.6444C128.959 84.6849 128.803 84.7657 128.685 84.887C127.94 85.8978 127.196 86.8682 126.529 87.7981L126.372 88.0002L126.294 87.7577C126.02 86.7469 125.784 85.7765 125.549 84.887V84.8466C125.549 84.6849 125.471 84.5231 125.353 84.4423C125.236 84.3614 125.079 84.321 124.922 84.321L125.04 84.1997C125.157 88.0002 125.236 91.1539 125.314 93.5798C125.745 95.3183 126.059 96.6526 126.294 97.542C126.412 97.9868 126.49 98.3102 126.529 98.5528C126.568 98.7954 126.608 98.9167 126.608 98.9167C126.608 98.9167 126.568 98.7954 126.49 98.5933C126.412 98.3507 126.333 98.0272 126.216 97.5825C125.98 96.6525 125.628 95.3588 125.157 93.6202C125.079 91.2348 124.961 88.0811 124.804 84.2401V84.1188H124.922C125.118 84.1188 125.314 84.1593 125.471 84.2806C125.667 84.4019 125.745 84.604 125.745 84.8466V84.8062C125.98 85.7361 126.255 86.7064 126.529 87.6768L126.333 87.6364C127.039 86.7064 127.744 85.7361 128.489 84.7253C128.646 84.604 128.803 84.4423 129.038 84.4019C129.155 84.3614 129.312 84.4019 129.43 84.5231C129.547 84.6444 129.547 84.7253 129.587 84.8466C129.665 85.0488 129.665 85.2913 129.626 85.4935C129.626 85.6148 129.587 85.6957 129.587 85.7765C129.587 85.8169 129.587 85.8574 129.587 85.8978C129.587 85.9787 129.547 86.0191 129.547 86.1C129.273 86.9086 128.881 87.6364 128.489 88.4046V88.3641C128.489 89.1323 128.489 89.9005 128.528 90.6687C128.567 91.073 128.567 91.4369 128.646 91.8412C128.685 92.0434 128.724 92.2051 128.842 92.286C128.92 92.3668 128.999 92.4073 129.038 92.4477C129.077 92.4477 129.116 92.4881 129.116 92.4881V92.5286C129.195 92.569 129.038 92.4881 129.038 92.4881V92.5286C128.959 91.5582 128.881 90.5474 128.763 89.5366V89.4558L128.803 89.4153C129.704 88.5258 130.645 87.5959 131.664 86.7469C131.782 86.6256 131.939 86.5447 132.056 86.4234C132.135 86.383 132.174 86.3426 132.252 86.2617C132.33 86.2213 132.409 86.1808 132.526 86.1404C132.644 86.1404 132.722 86.1404 132.84 86.2617C132.958 86.383 132.918 86.5447 132.918 86.6256C132.879 86.8277 132.801 86.949 132.722 87.1108C132.409 87.7577 132.056 88.3237 131.743 88.9302C131.429 89.4558 131.155 89.9409 130.88 90.4261V90.3048C131.115 91.2347 131.351 92.1647 131.547 93.0542L131.311 93.0137C131.782 92.1647 132.291 91.356 132.801 90.5879C133.075 90.1835 133.35 89.8197 133.663 89.4558C133.742 89.3749 133.82 89.294 133.938 89.2132C134.016 89.1323 134.173 89.0515 134.29 89.0515C134.408 89.011 134.526 88.9706 134.643 88.9706C134.722 88.9706 134.761 88.9302 134.839 88.9706C134.918 88.9706 135.035 89.0515 135.074 89.1323C135.153 89.294 135.153 89.4153 135.153 89.5366C135.153 89.6175 135.153 89.6984 135.153 89.7388L135.114 89.9005C135.035 90.1431 134.957 90.3453 134.878 90.5474C134.722 90.9922 134.565 91.3965 134.369 91.8008C134.016 92.6094 133.663 93.418 133.31 94.1862V94.1054C133.506 95.5609 133.663 97.0164 133.702 98.3911C133.742 99.0784 133.702 99.8062 133.467 100.453C133.232 101.1 132.84 101.626 132.33 102.07L132.37 101.989C132.566 107.892 132.722 112.744 132.801 116.181C132.84 117.879 132.879 119.213 132.918 120.103C132.918 120.547 132.918 120.871 132.918 121.154C132.997 121.356 132.997 121.477 132.997 121.477Z" fill="#7C3B29"/>
<path d="M126.725 92.852C126.647 92.852 126.49 91.7199 126.372 90.3048C126.255 88.8897 126.255 87.7172 126.333 87.7172C126.412 87.7172 126.568 88.8493 126.686 90.2644C126.804 91.7199 126.804 92.852 126.725 92.852Z" fill="#7C3B29"/>
<path d="M93.1827 110.506L87.0286 97.6895C90.4388 90.0479 91.9284 81.3956 90.87 72.4199C87.8909 46.6651 65.1953 28.3092 40.2261 31.4225C15.2177 34.5357 -2.57822 57.905 0.440036 83.7002C3.45829 109.455 26.154 127.811 51.1232 124.698C61.5498 123.404 70.7222 118.552 77.6603 111.477V111.517L93.1827 110.506Z" fill="#FAFAFA"/>
<path d="M93.1827 110.506C92.8691 110.547 87.7341 110.87 77.621 111.557H77.5426L77.5818 111.477C77.5818 111.477 77.5818 111.477 77.5818 111.436L77.6602 111.477C76.6019 112.528 75.4259 113.66 74.0932 114.752C73.4268 115.318 72.7213 115.843 72.0157 116.409C71.271 116.935 70.5262 117.501 69.703 117.986C66.4888 120.088 62.6474 121.908 58.2964 123.242C53.9454 124.576 49.0456 125.223 43.8323 125.062C38.619 124.859 33.1312 123.687 27.8003 121.342C22.4694 118.997 17.2952 115.479 12.905 110.83C8.47564 106.18 4.90862 100.358 2.63513 93.8081C0.361641 87.2582 -0.500717 79.9401 0.283245 72.6625C0.361641 71.7325 0.518433 70.8431 0.675225 69.9131C0.832018 69.0236 1.02801 68.0937 1.224 67.2042C1.65518 65.4253 2.16475 63.6058 2.79192 61.8673C3.37989 60.0883 4.16385 58.3902 4.98701 56.6921C5.84937 55.0344 6.75093 53.3767 7.80928 51.7999C8.82843 50.1826 10.0436 48.6462 11.2195 47.1907L12.1603 46.0991L12.6306 45.5735L13.1402 45.0479L14.1202 44.0371L15.1393 43.0667C17.8832 40.4791 20.9406 38.3362 24.1549 36.5573C24.9388 36.1125 25.762 35.7082 26.5851 35.3039C27.4083 34.8996 28.2315 34.5761 29.0546 34.2122C29.917 33.8888 30.7401 33.5653 31.6025 33.2823C32.4649 33.0397 33.288 32.7163 34.1504 32.5141C37.5998 31.5842 41.0492 31.099 44.4987 31.0182C51.3975 30.816 58.0612 32.312 63.9409 34.94C69.8206 37.6085 74.9164 41.4495 78.9146 45.8565C82.952 50.2635 85.931 55.277 87.8909 60.2905C88.8709 62.7972 89.6157 65.304 90.1644 67.8107C90.282 68.4172 90.3996 69.0641 90.5172 69.6705C90.6348 70.277 90.7132 70.8835 90.7916 71.49C90.8308 71.773 90.87 72.0964 90.9092 72.3794C90.9484 72.6625 90.9876 72.9859 90.9876 73.2689C91.066 73.8754 91.1052 74.4414 91.1444 75.0479C91.458 79.738 91.0268 84.0641 90.2428 87.9051C89.8508 89.8054 89.3413 91.5843 88.8317 93.242C88.2829 94.8593 87.6949 96.3957 87.0678 97.7299V97.6895C91.0268 105.978 93.0651 110.223 93.1827 110.506C93.0651 110.223 90.9876 106.018 86.9894 97.7299C87.5774 96.3552 88.1653 94.8593 88.7141 93.242C89.2629 91.6248 89.7332 89.8458 90.1252 87.9455C90.9092 84.145 91.3012 79.8188 91.0268 75.1288C90.9876 74.5627 90.9484 73.9563 90.87 73.3498C90.8308 73.0668 90.7916 72.7433 90.7916 72.4603C90.7524 72.1773 90.7132 71.8538 90.674 71.5708C90.5956 70.9644 90.5172 70.3579 90.3996 69.7514C90.282 69.1449 90.1644 68.5385 90.0468 67.8916C89.4981 65.4253 88.7533 62.9185 87.7733 60.4118C85.8134 55.3983 82.8344 50.4252 78.797 46.0182C74.7988 41.6112 69.7422 37.7702 63.8625 35.1422C58.022 32.5141 51.3583 31.0182 44.4987 31.2203C41.0884 31.3416 37.5998 31.8268 34.1896 32.7163C33.3272 32.9184 32.5041 33.2015 31.6417 33.4845C30.7793 33.7675 29.9562 34.091 29.133 34.4144C28.3099 34.7783 27.4867 35.1017 26.6635 35.5061C25.8404 35.9104 25.0172 36.2742 24.2333 36.7594C21.0582 38.5384 18.0008 40.6813 15.2961 43.2284L14.277 44.1988L13.297 45.2096L12.7874 45.7352L12.3171 46.2204L11.3763 47.2716C10.1612 48.7271 8.98522 50.2635 7.96607 51.8808C6.90772 53.4576 6.00616 55.1153 5.183 56.7729C4.35984 58.4711 3.61508 60.1692 3.02711 61.9077C2.39994 63.6463 1.89037 65.4253 1.45919 67.2447C1.2632 68.1342 1.06721 69.0641 0.910414 69.9536C0.79282 70.8431 0.596829 71.773 0.518433 72.6625C-0.304726 79.9401 0.557631 87.1773 2.83112 93.7272C5.06541 100.277 8.67163 106.059 13.0618 110.708C17.452 115.358 22.5869 118.876 27.8787 121.221C33.2096 123.566 38.6582 124.738 43.8323 124.94C49.0064 125.142 53.9062 124.455 58.2572 123.161C62.6082 121.867 66.4104 120.008 69.6246 117.946C70.4478 117.46 71.1926 116.894 71.9373 116.369C72.6429 115.803 73.3876 115.318 74.0148 114.752C75.3476 113.66 76.5235 112.528 77.5818 111.477L77.817 111.234L77.6602 111.517C77.6602 111.517 77.6602 111.517 77.6602 111.557L77.621 111.477C87.7341 110.83 92.8691 110.506 93.1827 110.506Z" fill="#263238"/>
<path d="M42.8132 86.0048L45.4786 96.1127L55.2389 82.4873L52.9263 118.188H38.9717L34.8951 118.39C34.8951 118.39 35.4831 112.77 35.7575 109.576C35.7967 108.97 35.9927 105.412 37.0118 102.097C39.0893 95.0615 42.8132 86.0048 42.8132 86.0048Z" fill="#FAFAFA"/>
<path d="M45.949 101.773C45.9882 101.813 44.4203 103.148 42.4212 104.684C40.4221 106.261 38.8149 107.474 38.7758 107.433C38.7366 107.393 40.3045 106.059 42.3036 104.522C44.2635 102.986 45.9098 101.733 45.949 101.773Z" fill="#263238"/>
<path d="M70.2518 81.0722L62.6474 77.2717L59.6683 73.6329L55.4349 78.1612L44.2635 118.067H63.4313L65.9008 111.234L70.2518 84.7919V81.0722Z" fill="#206BC4"/>
<path d="M36.0319 118.673L35.5223 110.183L58.6884 106.14C58.6884 106.14 62.6474 86.4091 65.0777 83.1746C67.312 80.1827 70.2518 81.2339 70.2518 81.2339C70.2518 81.2339 72.8781 83.0938 72.2509 90.2501C71.9373 94.0102 70.6046 106.989 70.095 111.679C69.9774 112.811 69.6246 113.902 69.0367 114.832C67.7039 117.016 65.3912 118.35 62.8826 118.35L36.0319 118.673Z" fill="#206BC4"/>
<path d="M62.4906 111.072C62.4514 111.072 62.4122 110.708 62.2554 110.102C62.0986 109.536 61.7458 108.727 61.197 108.04C60.6091 107.353 59.9427 106.867 59.3939 106.584C58.8844 106.301 58.4924 106.221 58.5316 106.18C58.5316 106.14 58.9236 106.221 59.4723 106.463C60.0211 106.706 60.7659 107.151 61.3538 107.919C61.9418 108.646 62.2946 109.455 62.4122 110.062C62.5298 110.668 62.4906 111.072 62.4906 111.072Z" fill="#263238"/>
<g opacity="0.2">
<g opacity="0.2">
<g opacity="0.2">
<path opacity="0.2" d="M62.0594 77.8782C61.8242 80.3849 61.393 82.8512 60.6875 85.2367C60.0995 85.075 59.5115 84.8728 58.9628 84.7111C59.6683 85.7623 59.7467 87.1774 59.4723 88.4308C59.1979 89.6841 58.5708 90.8162 57.9828 91.9483C55.0821 97.2852 52.2207 102.622 49.32 107.959L58.022 87.5413L57.7868 83.7811L59.4723 83.4173L62.0594 77.8782Z" fill="black"/>
</g>
</g>
</g>
<g opacity="0.2">
<g opacity="0.2">
<g opacity="0.2">
<path opacity="0.2" d="M58.61 105.897C59.6683 105.816 60.7267 106.14 61.589 106.787C62.4514 107.433 63.0785 108.363 63.3529 109.415C63.4313 109.657 63.4705 109.94 63.3529 110.183C63.2745 110.425 62.9609 110.587 62.765 110.506C62.569 110.425 62.4906 110.223 62.4122 110.062C61.6674 108.283 60.1779 106.827 58.3748 106.18" fill="black"/>
</g>
</g>
</g>
<path d="M49.3592 107.757C49.3592 107.757 49.3984 107.636 49.4768 107.433C49.5552 107.191 49.712 106.908 49.8688 106.504C50.2216 105.695 50.692 104.522 51.2799 103.107C52.4951 100.237 54.1806 96.3149 56.0229 91.9887C56.6893 90.4119 57.3556 88.8755 57.9436 87.4604V87.5008C57.8652 86.1666 57.7868 84.9132 57.7084 83.7407V83.6599H57.7868C58.3748 83.5386 58.9236 83.4173 59.4723 83.296L59.4331 83.3364C60.2955 81.517 61.0011 80.021 61.5106 78.9698C61.7458 78.4846 61.9418 78.0803 62.0986 77.7569C62.177 77.6356 62.2162 77.5143 62.2554 77.4334C62.2946 77.3526 62.2946 77.3121 62.3338 77.3121C62.3338 77.3121 62.3338 77.3526 62.2946 77.4334C62.2554 77.5143 62.2162 77.6356 62.1378 77.7569C62.0202 78.0399 61.8242 78.4442 61.589 78.9698C61.0794 80.021 60.4131 81.517 59.5507 83.3768V83.4173H59.5115C58.9628 83.5386 58.414 83.6599 57.826 83.7812L57.9044 83.7003C57.9828 84.8728 58.0612 86.1262 58.1396 87.4604V87.5008V87.5413C57.5124 88.9564 56.8853 90.4928 56.2189 92.0696C54.3374 96.3957 52.6519 100.318 51.4367 103.148C50.8096 104.563 50.3392 105.695 49.9864 106.504C49.8296 106.867 49.6728 107.191 49.5944 107.393C49.4376 107.676 49.3592 107.757 49.3592 107.757Z" fill="#263238"/>
<path d="M36.0319 118.39C36.0319 118.39 36.0319 118.35 36.0319 118.269C36.0319 118.148 35.9927 118.026 35.9927 117.865C35.9535 117.501 35.9143 116.935 35.8751 116.288C35.7967 114.873 35.6399 112.892 35.4831 110.425V110.345H35.5615C39.9125 109.536 45.8314 108.404 52.3383 107.15C54.4942 106.746 56.5717 106.342 58.5316 105.978L58.4532 106.059C59.8251 100.722 61.0011 96.1127 61.8242 92.7973C62.2554 91.1801 62.6082 89.8458 62.8434 88.9563C62.961 88.5116 63.0394 88.1881 63.1177 87.9455C63.1569 87.8243 63.1569 87.7434 63.1961 87.6625C63.1961 87.6221 63.2353 87.5817 63.2353 87.5817C63.2353 87.5817 63.2353 87.6221 63.2353 87.6625C63.2353 87.7434 63.1961 87.8243 63.1569 87.9455C63.0785 88.1881 63.0002 88.552 62.9218 88.9968C62.6866 89.9267 62.373 91.2205 61.981 92.8782C61.1578 96.1935 59.9819 100.803 58.6884 106.14V106.221H58.61C56.6501 106.584 54.5726 106.989 52.4167 107.393C45.9098 108.606 39.9909 109.698 35.6399 110.506L35.7183 110.425C35.8359 112.892 35.9535 114.873 36.0319 116.288C36.0711 116.975 36.0711 117.501 36.1103 117.865C36.1103 118.026 36.1103 118.188 36.1103 118.269C36.0319 118.35 36.0319 118.39 36.0319 118.39Z" fill="#263238"/>
<path d="M69.0759 80.3849C69.0759 80.4253 68.6839 80.4658 68.0959 80.7083C67.5079 80.9509 66.724 81.3552 66.0184 82.0426C65.3128 82.7299 64.8425 83.4981 64.6073 84.1046C64.3329 84.711 64.2545 85.1154 64.2153 85.0749C64.2153 85.0749 64.2153 84.9536 64.2545 84.7919C64.2937 84.5897 64.3721 84.3472 64.4897 84.0237C64.7249 83.4172 65.1953 82.5682 65.9008 81.8808C66.6456 81.1935 67.4687 80.7488 68.0567 80.5466C68.3703 80.4657 68.6055 80.3849 68.8015 80.3849C68.9975 80.3849 69.0759 80.3849 69.0759 80.3849Z" fill="#263238"/>
<path d="M25.2916 71.4092C25.9972 70.1154 25.6836 64.8189 26.7419 65.021C28.0747 65.2636 26.8595 70.8027 26.7419 71.2879C26.6635 71.7731 27.3691 71.9348 27.4083 71.4496C27.4867 70.8027 28.2707 64.3337 29.6034 64.6976C30.3482 64.8997 29.9954 66.2744 29.9954 66.2744C29.9954 66.2744 28.8586 72.5413 29.4858 72.6626C30.113 72.8243 30.6226 69.2259 30.8969 67.8917C31.1713 66.6383 31.9553 66.1127 32.2689 66.7596C32.7001 67.7299 31.8769 70.8836 31.6025 72.137C31.3673 73.3903 30.7009 77.0696 32.4257 75.614C34.1504 74.199 35.9927 73.7542 36.5415 73.9564C37.1294 74.199 36.9726 75.0884 36.3455 75.2502C35.7967 75.4119 34.9735 75.8971 34.3856 76.3418C33.876 76.7057 33.484 77.1504 33.092 77.5952C32.8176 77.9186 32.2689 78.5655 31.8769 79.5763C31.3673 80.7488 30.4266 81.5979 29.2506 82.0022L28.2315 86.9348L21.7246 85.4793L23.1749 80.2637C23.6845 76.827 23.4101 72.2582 23.4101 70.1558C23.4101 66.8 23.8413 66.8 24.1941 66.8809C25.0564 67.1639 24.6252 72.703 25.2916 71.4092Z" fill="#FFD1BD"/>
<path d="M25.0956 75.8971C25.0956 75.9375 25.4484 75.978 25.958 76.3014C26.4676 76.6249 27.0947 77.2313 27.4083 78.0804C27.4867 78.323 27.5651 78.5656 27.6043 78.7677L27.6435 78.889L27.7219 78.8486C28.3491 78.4847 28.9762 78.2826 29.4074 78.2017C29.8386 78.1208 30.113 78.1208 30.113 78.0804C30.113 78.0804 29.8386 78.04 29.3682 78.0804C28.8978 78.1613 28.2707 78.323 27.6435 78.6869L27.7611 78.7273C27.7219 78.4847 27.6435 78.2421 27.5651 77.9995C27.3691 77.5548 27.1339 77.1505 26.8595 76.8675C26.5851 76.544 26.2716 76.3418 25.9972 76.1801C25.7228 76.0184 25.4876 75.9375 25.3308 75.8971C25.174 75.8971 25.0956 75.8971 25.0956 75.8971Z" fill="#CC8F75"/>
<path d="M24.2333 80.5871C24.1941 80.6275 24.8604 81.0723 25.762 81.3553C26.6635 81.6383 27.4083 81.6787 27.4083 81.6383C27.4083 81.5979 26.6635 81.517 25.8012 81.234C24.8996 80.9105 24.2725 80.5466 24.2333 80.5871Z" fill="#CC8F75"/>
<path d="M47.7521 75.7353L42.8131 86.0049L45.4786 96.0723L52.6127 88.3095L59.6291 74.8458L47.7521 75.7353Z" fill="#FFD1BD"/>
<path d="M43.0875 76.7056C43.0875 76.7056 36.0319 79.2932 36.0319 79.7784C34.7776 80.7892 30.6226 91.1396 29.329 93.0803L25.566 98.8216L28.7411 86.0857L21.7638 83.9833C21.7638 83.9833 15.8057 98.8216 15.1001 102.097C14.3946 105.412 15.2177 108 15.2177 108L15.2569 107.959C15.7665 109.536 16.7464 110.83 17.8832 111.598C20.823 113.539 23.6061 113.902 26.4284 111.76C28.0355 110.547 29.8386 109.091 31.5241 107.676L31.9553 118.39H35.7967C35.7967 117.784 35.6791 110.466 35.6791 110.466C35.6791 110.466 36.5023 107.716 36.8551 105.169C37.2078 102.663 42.9308 86.0857 42.9308 86.0857L47.3993 77.2312L47.5169 73.9563L43.0875 76.7056Z" fill="#206BC4"/>
<path d="M31.8377 118.31C31.8377 118.31 31.8377 118.188 31.7985 117.986C31.7985 117.743 31.7593 117.42 31.7593 117.016C31.7201 116.167 31.6417 114.954 31.5633 113.458C31.4457 110.425 31.2497 106.261 31.0537 101.571C31.1321 101.126 31.2105 100.641 31.3281 100.196C32.2689 95.3041 33.092 90.8566 33.7192 87.6221C34.0328 86.0453 34.268 84.7111 34.464 83.8216C34.5424 83.3768 34.6208 83.0534 34.66 82.7704C34.6992 82.6491 34.6992 82.5682 34.7384 82.4874C34.7384 82.4469 34.7776 82.4065 34.7776 82.4065C34.7776 82.4065 34.7776 82.4469 34.7776 82.4874C34.7776 82.5682 34.7384 82.6491 34.7384 82.7704C34.6992 83.013 34.6208 83.3768 34.5816 83.8216C34.4248 84.7515 34.1896 86.0453 33.9152 87.6626C33.3272 90.8971 32.5041 95.3445 31.5633 100.277C31.4849 100.762 31.3673 101.207 31.2889 101.652V101.611C31.4849 106.301 31.6417 110.466 31.7593 113.498C31.7985 114.994 31.8377 116.207 31.8769 117.056C31.8769 117.46 31.8769 117.784 31.9161 118.027C31.8377 118.188 31.8377 118.31 31.8377 118.31Z" fill="#263238"/>
<path d="M35.7575 108.808C35.7575 108.808 35.7575 108.687 35.7967 108.485C35.8359 108.242 35.8751 107.919 35.9535 107.514C36.0711 106.665 36.2671 105.452 36.5023 103.997C37.0118 101.005 37.6782 96.9618 38.423 92.4335C38.9325 89.482 39.4029 86.7327 39.7949 84.3472C40.7749 82.0426 41.598 80.1424 42.186 78.7677C42.4604 78.1208 42.6956 77.5952 42.8524 77.2313C42.9308 77.0696 42.97 76.9483 43.0483 76.827C43.0875 76.7461 43.1267 76.7057 43.1267 76.7057C43.1267 76.7057 43.1267 76.7461 43.0875 76.8674C43.0483 76.9887 43.0092 77.11 42.9308 77.2717C42.774 77.6356 42.578 78.2017 42.3036 78.8486C41.7548 80.2232 40.9317 82.1235 39.9909 84.4281V84.3876C39.5989 86.7327 39.1285 89.5224 38.6582 92.4739C37.8742 96.9618 37.2078 101.045 36.6983 104.037C36.4239 105.493 36.2279 106.706 36.0711 107.514C35.9927 107.919 35.9535 108.242 35.8751 108.444C35.7967 108.687 35.7575 108.808 35.7575 108.808Z" fill="#263238"/>
<path d="M22.2342 107.636C22.195 107.595 22.5086 107.151 22.9397 106.423C23.3709 105.655 23.8805 104.563 24.3509 103.35C24.8212 102.097 25.1348 100.924 25.3308 100.075C25.5268 99.226 25.6052 98.7004 25.6444 98.7004C25.6444 98.7004 25.6444 98.8217 25.6052 99.0643C25.566 99.3068 25.5268 99.6707 25.4484 100.115C25.2916 100.965 24.978 102.177 24.5077 103.431C24.0373 104.684 23.4885 105.776 23.0181 106.504C22.7829 106.868 22.5869 107.151 22.4302 107.353C22.3518 107.514 22.2342 107.636 22.2342 107.636Z" fill="#263238"/>
<g opacity="0.2">
<g opacity="0.2">
<g opacity="0.2">
<path opacity="0.2" d="M22.7829 107.029C22.5086 107.07 22.3518 107.393 22.4694 107.636C22.5869 107.878 22.9005 108 23.1357 107.959C23.4101 107.919 23.6453 107.757 23.8021 107.555C24.3901 106.989 24.7428 106.18 25.0172 105.412C25.6052 103.471 25.6444 101.369 25.6836 99.3472C25.1348 102.016 24.1549 104.563 22.7829 106.908" fill="black"/>
</g>
</g>
</g>
<g opacity="0.2">
<g opacity="0.2">
<g opacity="0.2">
<path opacity="0.2" d="M31.3281 107.959C30.1522 106.018 29.7602 103.714 29.917 101.409C30.113 98.2961 31.6025 95.4659 32.7001 92.5548C32.0729 95.6276 31.7201 98.6599 31.1321 101.571C31.1321 101.571 31.4457 105.938 31.4457 107.878" fill="black"/>
</g>
</g>
</g>
<g opacity="0.2">
<g opacity="0.2">
<g opacity="0.2">
<path opacity="0.2" d="M36.2279 106.018C36.5415 101.369 36.855 96.6787 37.639 92.11C38.423 87.5008 39.9909 82.7703 42.186 78.6868C41.6372 80.5466 39.8733 84.3876 39.8733 84.3876C39.8733 84.3876 37.3254 98.1343 36.2279 105.088" fill="black"/>
</g>
</g>
</g>
<path d="M35.6399 111.396L36.2671 118.633H32.9744C32.896 118.633 31.5241 118.593 30.0346 118.593C28.937 118.754 27.2123 118.754 26.6635 118.673C26.5852 118.673 26.5068 118.633 26.5068 118.633C26.5068 118.633 26.2716 118.593 25.9972 118.512C25.6836 118.39 25.4092 118.188 25.4484 117.865C25.6052 116.814 26.1932 116.733 26.1932 116.733C26.1932 116.733 26.3108 116.733 26.5068 116.692L26.546 116.611C26.0756 116.611 25.7228 116.611 25.5268 116.571C25.4484 116.571 25.37 116.531 25.37 116.531C25.37 116.531 24.1941 116.369 24.2725 115.762C24.4293 114.711 25.0172 114.63 25.0172 114.63C25.0172 114.63 25.4092 114.59 25.9972 114.549C25.5268 114.549 25.1348 114.549 24.9388 114.509C24.8604 114.509 24.782 114.469 24.782 114.469C24.782 114.469 23.6061 114.307 23.6845 113.7C23.8413 112.649 24.4293 112.568 24.4293 112.568C24.4293 112.568 24.7428 112.528 25.2132 112.528C24.8212 112.528 24.5077 112.528 24.3509 112.487C24.2725 112.487 24.1941 112.447 24.1941 112.447C24.1941 112.447 23.0181 112.285 23.0965 111.679C23.2533 110.628 23.8413 110.547 23.8413 110.547C23.8413 110.547 25.6836 110.425 26.9379 110.345C26.9379 110.345 28.3883 109.01 28.937 109.051C29.7994 109.132 34.6992 111.032 34.6992 111.032L35.6399 111.396Z" fill="#FFD1BD"/>
<path d="M29.4466 116.49C29.4466 116.531 28.7018 116.611 27.8003 116.652C26.8987 116.692 26.1932 116.652 26.1932 116.611C26.1932 116.571 26.9379 116.49 27.8395 116.45C28.7018 116.409 29.4466 116.409 29.4466 116.49Z" fill="#CC8F75"/>
<path d="M29.4466 114.428C29.4466 114.469 28.3883 114.59 27.1339 114.631C25.8404 114.671 24.782 114.671 24.782 114.59C24.782 114.55 25.8404 114.428 27.0947 114.388C28.3883 114.347 29.4466 114.388 29.4466 114.428Z" fill="#CC8F75"/>
<g opacity="0.78">
<g opacity="0.78">
<g opacity="0.78">
<g opacity="0.78">
<g opacity="0.78">
<g opacity="0.78">
<g opacity="0.78">
<path opacity="0.78" d="M29.2898 112.366C29.2898 112.407 28.2315 112.528 26.9771 112.569C25.6836 112.609 24.6252 112.609 24.6252 112.528C24.6252 112.488 25.6836 112.366 26.9379 112.326C28.2315 112.285 29.2898 112.285 29.2898 112.366Z" fill="#CC8F75"/>
</g>
</g>
</g>
</g>
</g>
</g>
</g>
<path d="M26.3892 110.385C26.3892 110.426 26.6635 110.426 27.1339 110.426C27.6435 110.426 28.2707 110.466 28.937 110.466C29.6034 110.507 30.1914 110.507 30.7401 110.547C31.2105 110.547 31.4849 110.547 31.4849 110.547C31.4849 110.507 31.2105 110.466 30.7401 110.426C30.2698 110.385 29.6426 110.345 28.937 110.304C28.2315 110.264 27.6043 110.264 27.1339 110.304C26.6635 110.345 26.3892 110.385 26.3892 110.385Z" fill="#CC8F75"/>
<path d="M62.8826 51.5977C63.7057 49.4953 66.332 48.5654 68.4095 49.3336C70.4478 50.1018 71.8197 52.2851 72.0941 54.5088C72.2117 55.6005 72.0941 56.773 71.4669 57.7029C70.8398 58.6732 69.703 59.1988 68.6055 59.3606C66.6064 59.6436 64.4897 58.7541 63.2745 57.0964C62.0594 55.4387 61.785 53.0937 62.569 51.1934" fill="#263238"/>
<path d="M71.2318 51.8404C71.2318 51.8404 71.1926 51.9617 71.075 52.1234C70.9574 52.2851 70.8006 52.5277 70.5654 52.7703C70.095 53.2959 69.2719 53.9024 68.2527 54.2663C67.2336 54.6302 66.2144 54.6302 65.548 54.5493C65.1953 54.5089 64.9209 54.428 64.7249 54.3471C64.5289 54.2663 64.4505 54.2258 64.4505 54.2258C64.4505 54.1854 64.8817 54.3067 65.548 54.3876C66.2144 54.4684 67.1944 54.428 68.1743 54.0641C69.1543 53.7002 69.9382 53.1342 70.4478 52.649C70.9574 52.2043 71.1926 51.8404 71.2318 51.8404Z" fill="#455A64"/>
<path d="M72.0941 54.2258C72.0941 54.2258 72.0157 54.3067 71.8589 54.428C71.7021 54.5493 71.4669 54.7514 71.1926 54.9536C70.6046 55.3579 69.703 55.8431 68.6447 56.0452C68.0959 56.1665 67.5863 56.207 67.116 56.1665C66.6456 56.1261 66.2144 56.0452 65.8616 55.9644C65.5088 55.8431 65.2345 55.7622 65.0777 55.6409C64.8817 55.5601 64.8033 55.4792 64.8033 55.4792C64.8033 55.4388 65.2345 55.6409 65.9008 55.8027C66.2536 55.8835 66.6456 55.9644 67.116 55.9644C67.5863 55.9644 68.0959 55.924 68.6055 55.8431C69.6638 55.6005 70.5262 55.1558 71.1142 54.8323C71.7021 54.4684 72.0941 54.2258 72.0941 54.2258Z" fill="#455A64"/>
<path d="M41.6764 57.7838C36.8159 46.7865 48.3793 41.2474 54.651 43.0668C60.5699 44.8053 63.0785 47.8377 64.0585 51.9212C65.0384 56.0048 64.9992 60.4118 63.4313 64.3337C62.6474 66.234 61.2754 68.2151 59.2763 68.4577" fill="#263238"/>
<path d="M47.4777 84.994C47.3993 79.7379 47.3209 72.5007 47.3209 72.5412C47.3209 72.5412 42.9307 71.773 42.0292 65.9104C41.5588 62.9589 41.7156 58.1476 41.9508 54.2258C42.186 50.6678 44.4595 46.3416 47.8697 46.7055L58.5316 49.4953C59.5507 49.6166 60.3347 50.5061 60.3347 51.5977L59.6291 74.3606" fill="#FFD1BD"/>
<path d="M44.5771 58.4306C44.5771 58.8349 44.8515 59.1584 45.2826 59.1988C45.6746 59.2392 46.0274 58.9158 46.0274 58.5115C46.0274 58.1072 45.753 57.7837 45.3218 57.7433C44.9298 57.7433 44.6163 58.0263 44.5771 58.4306Z" fill="#263238"/>
<path d="M52.4951 58.4306C52.4951 58.8349 52.7695 59.1584 53.2006 59.1988C53.5926 59.2392 53.9454 58.9158 53.9454 58.5115C53.9454 58.1072 53.671 57.7837 53.2398 57.7433C52.8479 57.7433 52.5343 58.0263 52.4951 58.4306Z" fill="#263238"/>
<path d="M47.7521 62.595C47.7521 62.5546 47.2817 62.4738 46.4586 62.3525C46.2626 62.312 46.0666 62.2716 46.0274 62.1503C45.9882 61.9886 46.0666 61.7864 46.145 61.5438C46.341 61.0587 46.537 60.533 46.733 59.967C47.5561 57.7029 48.1441 55.843 48.0657 55.843C47.9873 55.8026 47.2425 57.622 46.4194 59.8457C46.2234 60.4118 46.0274 60.9374 45.8314 61.4225C45.753 61.6651 45.6354 61.9077 45.7138 62.2312C45.753 62.3929 45.9098 62.5142 46.0274 62.5546C46.145 62.595 46.2626 62.595 46.3802 62.595C47.2817 62.6355 47.7521 62.6355 47.7521 62.595Z" fill="#263238"/>
<path d="M47.3209 72.5817C47.3209 72.5817 51.1623 72.8243 54.9646 70.4792C54.9646 70.4792 53.0439 74.5628 47.3209 74.0372V72.5817Z" fill="#CC8F75"/>
<path d="M59.2763 59.0371C59.3547 58.9967 62.3338 57.622 62.373 61.18C62.4122 64.6975 58.9628 64.0102 58.9628 63.9293C58.9236 63.808 59.2763 59.0371 59.2763 59.0371Z" fill="#FFD1BD"/>
<path d="M59.9819 62.5546C59.9819 62.5546 60.0603 62.5951 60.1387 62.6355C60.2563 62.6759 60.4131 62.7164 60.5699 62.6355C60.9227 62.5142 61.2362 61.9077 61.2362 61.2608C61.2362 60.9374 61.1579 60.6139 61.0795 60.3713C60.9619 60.1288 60.8051 59.9266 60.6091 59.8862C60.4131 59.8457 60.2955 59.967 60.2563 60.0479C60.2171 60.1288 60.2171 60.2096 60.2171 60.2096C60.2171 60.2096 60.1387 60.1692 60.1779 60.0075C60.1779 59.9266 60.2171 59.8457 60.2955 59.7649C60.3739 59.684 60.4915 59.6436 60.6091 59.684C60.8835 59.684 61.1186 59.967 61.2362 60.2096C61.393 60.4926 61.4714 60.8161 61.4714 61.18C61.4714 61.9077 61.1186 62.5546 60.6091 62.7164C60.3739 62.7972 60.1779 62.7164 60.0603 62.6355C59.9819 62.6759 59.9427 62.5951 59.9819 62.5546Z" fill="#CC8F75"/>
<path d="M47.9873 64.8598C48.1049 65.1428 48.2225 65.4663 48.4185 65.7089C48.6145 65.9514 48.8889 66.1536 49.2024 66.194C49.5552 66.194 49.8688 65.9919 50.0256 65.7089C50.2216 65.4258 50.2608 65.062 50.2608 64.7385C50.2608 64.4151 50.104 64.0512 49.7904 64.0107C49.6728 64.0107 49.5552 64.0512 49.4376 64.0916C48.9281 64.2938 48.3793 64.5364 47.8697 64.7385" fill="#CC8F75"/>
<path d="M48.6145 66.1935C48.6145 66.1531 48.9673 66.2744 49.4376 66.0722C49.6728 65.9913 49.9472 65.7892 50.0648 65.4657C50.2216 65.1827 50.2216 64.7784 50.104 64.4145C50.0648 64.3337 50.0256 64.2528 49.9472 64.1719C49.8688 64.0911 49.908 64.0911 49.8296 64.1315C49.7512 64.1315 49.6728 64.2124 49.5944 64.2528C49.516 64.2932 49.4376 64.3337 49.32 64.3741C48.9673 64.4954 48.6929 64.6571 48.4185 64.738C47.9089 64.9401 47.5953 65.021 47.5561 65.021C47.5561 64.9806 47.8305 64.8188 48.3401 64.5762C48.5753 64.455 48.8889 64.2932 49.2024 64.1719C49.2808 64.1315 49.3592 64.0911 49.4768 64.0506C49.5552 64.0102 49.6336 63.9698 49.7512 63.9293C49.8296 63.9293 49.908 63.8889 49.9864 63.9293C50.0648 63.9698 50.104 64.0102 50.1432 64.0911C50.2216 64.1719 50.2608 64.2932 50.3392 64.4145C50.5352 64.8593 50.496 65.3444 50.3 65.7083C50.104 66.0722 49.7904 66.2744 49.516 66.3552C49.2416 66.4361 49.0065 66.4361 48.8497 66.3957C48.6929 66.2744 48.6145 66.2339 48.6145 66.1935Z" fill="#263238"/>
<path d="M63.1178 56.6517C62.765 56.6113 59.9427 57.0156 60.1779 62.4334C60.3739 67.4873 63.8233 66.3957 64.9209 64.4954C65.94 62.6356 66.528 56.8943 63.1178 56.6517Z" fill="#455A64"/>
<path d="M64.8425 57.2581C64.8425 57.2581 64.8425 57.2177 64.8425 57.0964C64.8425 56.9751 64.8425 56.8538 64.8425 56.6921C64.8425 56.3282 64.8033 55.8026 64.8033 55.1557C64.7641 53.8215 64.7249 51.9616 64.6857 49.8188L64.7641 49.8996C64.2937 49.8996 63.8233 49.8996 63.3138 49.8996L63.3921 49.8188C63.3921 50.2231 63.4313 50.6678 63.4313 51.0722C63.4705 53.0937 63.5097 54.994 63.5489 56.5708V56.6112H63.5097C62.8434 56.773 62.3338 57.1773 62.0202 57.622C61.7066 58.0668 61.5106 58.552 61.4322 58.9158C61.3147 59.3201 61.3147 59.6436 61.2755 59.8458C61.2755 59.967 61.2755 60.0479 61.2755 60.0883C61.2755 60.1288 61.2755 60.1692 61.2755 60.1692C61.2755 60.1692 61.2755 60.1288 61.2755 60.0883C61.2755 60.0479 61.2755 59.967 61.2755 59.8458C61.2755 59.6436 61.3147 59.3201 61.393 58.9158C61.4714 58.5115 61.6282 58.0263 61.981 57.5816C62.2946 57.1369 62.8434 56.6921 63.5097 56.5304L63.4705 56.5708C63.4313 54.994 63.3921 53.0937 63.3138 51.0722C63.3138 50.6274 63.2746 50.2231 63.2746 49.8188V49.7379H63.3529C63.8625 49.7379 64.3329 49.7379 64.8033 49.7379H64.8817V49.8188C64.9209 51.9616 64.9209 53.8215 64.9209 55.1557C64.9209 55.8026 64.9209 56.3282 64.9209 56.6921C64.9209 56.8538 64.9209 57.0156 64.9209 57.0964C64.8425 57.2177 64.8425 57.2581 64.8425 57.2581Z" fill="#455A64"/>
<path d="M63.1178 49.8599C63.1178 49.8599 61.6282 46.302 58.1004 44.523C56.3757 43.6739 55.1213 43.2292 53.867 42.9057C53.867 42.9057 55.9053 42.4206 59.2371 43.9165C60.7659 44.6038 62.2554 45.4933 63.2746 46.868C63.9017 47.7171 64.7249 49.4152 64.7249 49.8195H63.1178V49.8599Z" fill="#455A64"/>
<path d="M62.7258 65.9509C62.7258 65.9509 62.6866 65.9509 62.6082 65.9105C62.5298 65.8701 62.4514 65.8296 62.3338 65.7892C62.0986 65.6679 61.8242 65.3849 61.589 64.9806C61.3538 64.5763 61.197 64.0102 61.1186 63.4037C61.0794 62.7973 61.0794 62.1099 61.1186 61.3822C61.1578 60.6544 61.2754 60.0075 61.4322 59.401C61.589 58.7946 61.7458 58.269 61.981 57.8646C62.2162 57.4603 62.4906 57.1773 62.7258 57.056C62.8434 56.9752 62.9218 56.9347 63.0002 56.9347C63.0786 56.8943 63.1178 56.8943 63.1178 56.8943C63.1178 56.8943 63.0002 56.9347 62.765 57.0964C62.569 57.2582 62.2946 57.5008 62.0594 57.9051C61.8242 58.3094 61.6674 58.835 61.5498 59.4415C61.393 60.0479 61.3146 60.6948 61.2362 61.4226C61.197 62.1504 61.1578 62.7973 61.2362 63.4442C61.2754 64.0506 61.4322 64.5763 61.6674 64.9806C61.9026 65.3849 62.1378 65.6679 62.373 65.7892C62.6082 65.9105 62.7258 65.9509 62.7258 65.9509Z" fill="#263238"/>
<path d="M51.6719 66.7191L48.9672 67.2851C48.6145 67.366 48.2617 67.1234 48.1833 66.7595L48.1441 66.5574C48.0657 66.1935 48.3009 65.8296 48.6537 65.7487L51.3583 65.1827C51.7111 65.1018 52.0639 65.3444 52.1423 65.7083L52.1815 65.9105C52.2991 66.2743 52.0639 66.6382 51.6719 66.7191Z" fill="#455A64"/>
<path d="M51.8287 65.5468L63.8625 61.6654C64.1761 61.5845 64.4897 61.7463 64.5681 62.0293C64.6857 62.3527 64.4897 62.6762 64.1761 62.7571L51.9071 66.1937L51.8287 65.5468Z" fill="#455A64"/>
<path d="M60.7267 63.8485C60.7267 63.8485 60.8835 63.8081 61.1186 63.6868C61.393 63.6059 61.785 63.4846 62.2162 63.3229C62.6866 63.1612 63.2353 63.0399 63.8233 62.8377C63.9801 62.7973 64.0977 62.7164 64.2153 62.5951C64.3329 62.4738 64.3721 62.3121 64.3721 62.1504C64.3721 61.9887 64.2545 61.8674 64.1369 61.7865C63.9801 61.7461 63.8233 61.7461 63.6273 61.7865C62.2162 62.2313 60.9619 62.676 60.0211 62.9995C59.5899 63.1612 59.1979 63.242 58.9236 63.3633C58.6492 63.4442 58.5316 63.4846 58.5316 63.4846C58.5316 63.4846 58.6492 63.4038 58.9236 63.3229C59.1979 63.242 59.5507 63.0803 60.0211 62.9186C60.9227 62.5951 62.2162 62.1504 63.6273 61.6652C63.8233 61.6248 64.0193 61.5844 64.2153 61.6652C64.4113 61.7461 64.5681 61.9482 64.5681 62.1504C64.5681 62.3526 64.4897 62.5547 64.3721 62.676C64.2545 62.7973 64.0977 62.8782 63.9409 62.959C63.3137 63.1612 62.765 63.2825 62.2946 63.4442C61.8242 63.5655 61.4714 63.6868 61.197 63.7677C60.8443 63.8081 60.7267 63.8485 60.7267 63.8485Z" fill="#263238"/>
<path d="M54.4158 56.6922C54.3374 56.8539 53.5142 56.3687 52.4951 56.5709C51.4759 56.7326 50.8488 57.4604 50.7312 57.3391C50.6528 57.2987 50.7312 57.0156 51.0055 56.6922C51.2799 56.3687 51.7895 56.0048 52.4167 55.924C53.0439 55.8027 53.6318 55.9644 53.9846 56.1666C54.2982 56.4092 54.455 56.6113 54.4158 56.6922Z" fill="#CC8F75"/>
<path d="M54.2982 56.8134C54.2982 56.8538 54.063 56.7325 53.7494 56.6517C53.3966 56.5708 52.9263 56.5304 52.3775 56.6517C51.8679 56.773 51.4367 57.0156 51.1623 57.2582C50.888 57.5007 50.7312 57.6625 50.7312 57.622C50.692 57.622 50.8096 57.3794 51.0839 57.1369C51.3583 56.8538 51.7895 56.5708 52.3383 56.4495C52.8871 56.3282 53.4358 56.4091 53.7886 56.5304C54.1022 56.6517 54.2982 56.8134 54.2982 56.8134Z" fill="#263238"/>
<path d="M54.8078 54.4684C54.7294 54.7514 53.867 54.711 52.8087 54.7918C51.7503 54.8323 50.888 54.9131 50.8096 54.6301C50.7704 54.5088 50.9272 54.3067 51.3191 54.1045C51.6719 53.9024 52.2207 53.7811 52.8087 53.7406C53.3966 53.7002 53.9454 53.8215 54.3374 53.9832C54.651 54.1045 54.847 54.3067 54.8078 54.4684Z" fill="#263238"/>
<path d="M46.1842 57.2986C46.1058 57.3391 45.949 57.1773 45.7138 57.0156C45.4786 56.8539 45.1258 56.6517 44.6555 56.5709C43.7539 56.4092 43.0484 56.8539 42.97 56.6922C42.9308 56.6113 43.0484 56.4092 43.3619 56.207C43.6755 56.0048 44.1851 55.8431 44.7731 55.924C45.361 56.0048 45.7922 56.3687 46.0274 56.6517C46.2626 57.0156 46.2626 57.2582 46.1842 57.2986Z" fill="#CC8F75"/>
<path d="M46.3018 57.7434C46.2626 57.7434 46.145 57.5413 45.8706 57.2987C45.5962 57.0561 45.165 56.7731 44.6163 56.6518C44.0675 56.5305 43.5579 56.6113 43.2051 56.7326C42.8524 56.8539 42.6564 56.9752 42.6172 56.9348C42.6172 56.9348 42.774 56.7326 43.1267 56.5709C43.4795 56.4092 44.0283 56.2879 44.6163 56.4496C45.2042 56.5709 45.6746 56.9348 45.949 57.2178C46.2234 57.5008 46.3018 57.7434 46.3018 57.7434Z" fill="#263238"/>
<path d="M46.6546 54.7918C46.6154 55.0748 45.753 55.1557 44.7731 55.1961C43.7931 55.1961 42.9307 55.1153 42.8915 54.8322C42.8523 54.5492 43.6755 54.1449 44.7731 54.1449C45.8706 54.1449 46.6938 54.5088 46.6546 54.7918Z" fill="#263238"/>
<path d="M55.8661 46.463C55.2389 47.4333 54.6118 48.4037 54.2982 49.4953C53.9846 50.587 54.0238 51.8808 54.651 52.8107C55.2389 53.7406 56.2973 54.1853 57.238 54.7514C58.1788 55.3174 59.1588 56.0048 59.3547 57.0964C59.4331 57.4199 59.2763 58.5924 59.5507 58.835C59.9035 59.1584 60.4915 58.9562 60.7267 58.5519C61.0011 58.1476 61.1579 56.8538 61.1579 56.4091C61.1971 54.9535 61.1971 53.4576 61.2363 52.0021C61.2363 50.7487 61.2363 49.4549 60.7267 48.3632C59.9819 46.7864 58.4924 46.3012 56.2581 46.4225" fill="#263238"/>
<path d="M41.8332 55.277C42.0292 53.781 42.5388 52.3255 43.4403 51.153C44.3419 49.9805 45.6746 49.1314 47.0857 48.8889C48.5361 48.6463 49.9864 49.091 51.4367 49.1719C52.8871 49.2527 54.5334 48.8889 55.3174 47.595C55.5525 47.1907 55.6701 46.6247 55.3566 46.3012C55.239 46.1799 55.0822 46.0991 54.9254 46.0182C53.0047 45.0883 50.8096 44.6436 48.6929 44.967C46.5762 45.2905 44.5771 46.3821 43.2443 48.1207C41.9116 49.8592 41.3236 52.2042 41.8724 54.3471" fill="#263238"/>
<path d="M40.9708 53.0937C40.9708 53.0937 40.9316 53.0129 40.8924 52.8916C40.8532 52.7703 40.814 52.5681 40.7749 52.3255C40.6965 51.8404 40.6965 51.0722 40.9708 50.1827C41.2452 49.2932 41.794 48.3228 42.6956 47.5546C43.5971 46.746 44.8123 46.18 46.145 45.9374C47.4777 45.6948 48.8105 45.8565 49.9472 46.0991C50.5352 46.2204 51.0447 46.4226 51.5151 46.5843C51.9855 46.7864 52.4559 46.9886 52.8479 47.0695C53.671 47.2312 54.4158 47.3525 54.8862 47.2716C55.3565 47.1908 55.5525 46.9077 55.5525 46.9482C55.5525 46.9482 55.5133 47.029 55.4349 47.1099C55.3565 47.1908 55.1605 47.3121 54.9254 47.3525C54.4158 47.4738 53.7102 47.3929 52.8479 47.2312C52.4167 47.1099 51.9855 46.9077 51.4759 46.746C51.0055 46.5843 50.4568 46.4226 49.908 46.2608C48.7713 46.0182 47.5169 45.897 46.1842 46.0991C44.8906 46.3417 43.7147 46.8673 42.8131 47.6355C41.9116 48.4037 41.402 49.3336 41.1276 50.1827C40.8532 51.0317 40.814 51.7595 40.8924 52.2851C40.8924 52.8107 41.01 53.0533 40.9708 53.0937Z" fill="#455A64"/>
<path d="M47.2817 43.7945C47.2817 43.7945 47.3993 43.754 47.6345 43.7136C47.8697 43.6732 48.2225 43.6732 48.6537 43.7136C49.4768 43.7945 50.6528 44.1179 51.7111 44.967C52.2207 45.3713 52.6519 45.816 53.0831 46.1395C53.5142 46.4629 54.0238 46.5842 54.4158 46.7055C54.8078 46.7864 55.1606 46.7864 55.3957 46.7864C55.6309 46.746 55.7485 46.7055 55.7485 46.7055C55.7485 46.7055 55.6309 46.7864 55.3957 46.8673C55.1606 46.9077 54.8078 46.9481 54.3766 46.8673C53.9454 46.7864 53.4358 46.6651 52.9655 46.3417C52.4951 46.0182 52.0639 45.5735 51.5543 45.1691C50.5744 44.3605 49.4376 43.9966 48.6145 43.9158C47.8305 43.754 47.2817 43.8349 47.2817 43.7945Z" fill="#455A64"/>
<path d="M64.6073 54.6302C64.6073 54.6302 64.5289 54.5089 64.3721 54.2663C64.2153 54.0641 63.9017 53.7407 63.4705 53.5385C63.0394 53.3363 62.4514 53.1746 61.785 53.1746C61.1186 53.1746 60.4131 53.3363 59.6683 53.4576C58.9236 53.6194 58.1788 53.7002 57.5124 53.6194C56.8461 53.5385 56.2581 53.3768 55.7877 53.1746C55.3173 52.9725 54.9646 52.7703 54.7294 52.6086C54.4942 52.4469 54.3766 52.3256 54.3766 52.3256C54.4158 52.2851 54.8862 52.6894 55.8269 53.0533C56.2973 53.2151 56.8853 53.3768 57.5124 53.4172C58.1788 53.4576 58.8844 53.3768 59.6291 53.2151C60.3739 53.0533 61.1186 52.932 61.785 52.932C62.4514 52.932 63.0786 53.0938 63.5097 53.3363C63.9801 53.5789 64.2545 53.9024 64.4113 54.145C64.4897 54.2663 64.5289 54.3876 64.5681 54.428C64.6073 54.5897 64.6073 54.6302 64.6073 54.6302Z" fill="#455A64"/>
<path d="M63.9801 51.7999C63.9801 51.7999 63.9017 51.6786 63.7449 51.4361C63.5881 51.2339 63.2746 50.9509 62.8434 50.7892C62.4122 50.587 61.8242 50.5466 61.197 50.6274C60.5699 50.7083 59.8643 50.87 59.1196 51.0317C58.3748 51.1935 57.63 51.1935 57.0028 50.9913C56.3757 50.7892 55.8661 50.4253 55.5133 50.0614C55.1605 49.6975 54.9645 49.3336 54.847 49.0506C54.8078 48.9293 54.7686 48.808 54.7294 48.7272C54.7294 48.6463 54.6902 48.6059 54.7294 48.6059C54.7686 48.5654 54.9254 49.2123 55.5917 49.9401C55.9445 50.2635 56.4149 50.6274 57.0421 50.7892C57.63 50.9913 58.3748 50.9509 59.0804 50.7892C59.8251 50.6679 60.4915 50.4657 61.1579 50.3848C61.8242 50.304 62.4122 50.4253 62.8826 50.6274C63.3529 50.8296 63.6273 51.153 63.7841 51.3956C63.9801 51.6382 63.9801 51.7999 63.9801 51.7999Z" fill="#455A64"/>
<path d="M49.2808 92.2313C49.2808 92.2313 49.32 92.1908 49.3592 92.1504C49.3984 92.11 49.4768 92.0695 49.5944 91.9887C49.7904 91.827 50.0648 91.5844 50.3784 91.2609C50.692 90.897 51.0839 90.4523 51.5151 89.9267C51.9463 89.3606 52.3775 88.7137 52.8479 87.986C53.8278 86.5305 54.9254 84.711 56.1405 82.649C56.7285 81.5978 57.3556 80.5062 57.9828 79.3337C58.1396 79.0506 58.2964 78.7272 58.4532 78.4442C58.61 78.1612 58.7668 77.8377 59.002 77.5547C59.1979 77.2717 59.5115 77.0695 59.8251 76.9482C59.9819 76.9078 60.1779 76.8674 60.3347 76.9078C60.4131 76.9482 60.5307 76.9887 60.5699 77.0695C60.6483 77.1504 60.6875 77.2312 60.6875 77.3525C60.6483 77.4738 60.6091 77.5951 60.4915 77.676C60.4131 77.7568 60.2563 77.8377 60.1387 77.8377C59.8643 77.8377 59.6683 77.7164 59.4723 77.5951C59.0412 77.3121 58.8452 76.7056 59.0412 76.2205C59.1195 75.9779 59.3155 75.7353 59.5507 75.614C59.7859 75.4927 60.0603 75.4523 60.2955 75.4927C60.5307 75.5331 60.8051 75.6949 60.8835 75.9779C60.9227 76.0992 60.8835 76.3013 60.8051 76.4226C60.6875 76.5439 60.5699 76.5843 60.4523 76.6248C60.0211 76.7461 59.5115 76.5035 59.3155 76.0992C59.1979 75.897 59.1979 75.614 59.2371 75.4118C59.2763 75.1692 59.4331 74.9671 59.5899 74.8458C59.7467 74.6841 59.9819 74.6032 60.2171 74.6032C60.4523 74.6032 60.6483 74.7245 60.8051 74.9267C60.8835 75.0075 60.8835 75.1692 60.8835 75.2905C60.8835 75.4118 60.8051 75.5331 60.6875 75.614C60.4915 75.7353 60.2563 75.7757 60.0603 75.6948C59.8251 75.614 59.7075 75.4118 59.6291 75.2097C59.5507 75.0075 59.5507 74.7649 59.5507 74.5628C59.5507 74.1585 59.6291 73.7137 59.8643 73.3498C59.9819 73.1881 60.1387 73.0264 60.3739 72.9859C60.5699 72.9455 60.8051 72.9859 60.9619 73.1072C61.1187 73.2285 61.2754 73.4307 61.2754 73.6733C61.2754 73.9159 61.0795 74.0776 60.8835 74.1585C60.6875 74.2393 60.4523 74.1989 60.2955 74.0776C60.1387 73.9563 60.0211 73.7541 60.0211 73.552C59.9819 73.3498 60.0211 73.1477 60.0603 72.9859C60.0995 72.7838 60.1779 72.6221 60.2563 72.4603C60.3347 72.2986 60.4523 72.1369 60.6091 72.056C60.7659 71.9752 60.9227 71.8943 61.1186 71.8943C61.197 71.8943 61.3146 71.8943 61.393 71.9347C61.4714 71.9752 61.5498 72.056 61.589 72.1369C61.6282 72.2178 61.6674 72.2986 61.7066 72.3795C61.7458 72.4603 61.7066 72.5816 61.6674 72.6625C61.5498 72.8647 61.3538 72.9051 61.197 72.8647C61.0403 72.8242 60.8835 72.7434 60.7659 72.6221C60.5307 72.3795 60.4131 72.056 60.3739 71.6921C60.3347 71.3687 60.4523 71.0452 60.6091 70.7622C60.6875 70.6409 60.8051 70.5196 60.9619 70.4388C61.0795 70.3579 61.2362 70.3175 61.393 70.3175C61.5498 70.3175 61.7066 70.3579 61.8242 70.4388C61.9418 70.5196 62.0202 70.6814 62.0202 70.8431C61.981 71.1665 61.7066 71.3687 61.4714 71.4091C61.197 71.4496 60.9619 71.2474 60.8443 71.0452C60.7267 70.8431 60.6483 70.5601 60.6875 70.3175C60.7267 69.8323 60.9619 69.4684 61.1186 69.0641C61.2754 68.7002 61.4322 68.3768 61.5498 68.0533C61.8242 67.4469 62.0202 67.0021 62.1378 66.6787C62.2162 66.5169 62.2554 66.3956 62.2946 66.3148C62.3338 66.2339 62.3338 66.1935 62.3338 66.1935C62.3338 66.1935 62.3338 66.2339 62.2946 66.3148C62.2554 66.3956 62.2162 66.5169 62.1378 66.6787C62.0202 67.0021 61.8242 67.4873 61.5498 68.0938C61.4322 68.3768 61.2754 68.7407 61.1186 69.1045C60.9619 69.4684 60.7659 69.8727 60.7267 70.3175C60.7267 70.5601 60.7659 70.8027 60.8835 70.9644C61.0011 71.1665 61.2362 71.3283 61.4322 71.2878C61.6674 71.2474 61.9026 71.0452 61.9026 70.8027C61.9026 70.6814 61.8634 70.5601 61.7458 70.4792C61.6674 70.3983 61.5106 70.3579 61.393 70.3579C61.2754 70.3579 61.1186 70.3983 61.0011 70.4792C60.8835 70.5601 60.7659 70.6409 60.6875 70.7622C60.5307 71.0048 60.4523 71.3283 60.4523 71.6113C60.4523 71.9347 60.6091 72.2177 60.8051 72.4603C60.9227 72.5816 61.0403 72.6625 61.197 72.6625C61.3538 72.7029 61.5106 72.6625 61.589 72.5412C61.6674 72.4199 61.589 72.2582 61.5106 72.1369C61.4714 72.056 61.393 72.0156 61.3538 71.9752C61.2754 71.9347 61.197 71.9347 61.1186 71.9347C60.8051 71.9752 60.4915 72.1369 60.3347 72.4603C60.2563 72.6221 60.2171 72.7838 60.1387 72.9859C60.0995 73.1477 60.0603 73.3498 60.0995 73.5116C60.1387 73.6733 60.2171 73.835 60.3347 73.9563C60.4523 74.0776 60.6483 74.0776 60.8051 74.0372C60.9619 73.9967 61.0795 73.835 61.1186 73.6733C61.1186 73.5116 61.0403 73.3498 60.8835 73.269C60.7267 73.1881 60.5699 73.1477 60.3739 73.1881C60.2171 73.2285 60.0603 73.3498 59.9427 73.5116C59.7467 73.835 59.6683 74.2393 59.6683 74.6436C59.6683 74.8458 59.7075 75.0479 59.7467 75.2501C59.8251 75.4118 59.9427 75.614 60.0995 75.6544C60.2563 75.7353 60.4915 75.6949 60.6091 75.5736C60.7659 75.4927 60.8051 75.2501 60.6875 75.0884C60.6091 74.9267 60.4131 74.8458 60.2171 74.8458C60.0211 74.8458 59.8251 74.9267 59.7075 75.0479C59.3939 75.2905 59.2763 75.7757 59.4723 76.1396C59.6683 76.5035 60.0995 76.7056 60.4915 76.6248C60.6091 76.5843 60.7267 76.5439 60.7659 76.463C60.8443 76.3822 60.8443 76.2609 60.8051 76.18C60.7267 75.9779 60.5307 75.8161 60.2955 75.7757C59.8643 75.6949 59.3547 75.9374 59.1979 76.3822C59.0412 76.8269 59.1979 77.3525 59.5899 77.5951C59.7859 77.7164 59.9819 77.8377 60.1779 77.7973C60.3739 77.7973 60.5307 77.5951 60.6091 77.393V77.4334C60.5699 77.2717 60.4523 77.1504 60.3347 77.1099C60.1779 77.0695 60.0211 77.1099 59.8643 77.1504C59.5507 77.2717 59.2763 77.4738 59.0804 77.7164C58.8844 77.959 58.7276 78.2825 58.5708 78.5655C58.414 78.8485 58.2572 79.1719 58.1004 79.455C57.4732 80.6275 56.8461 81.7191 56.2581 82.7703C55.043 84.8323 53.9062 86.6113 52.9263 88.1073C52.4559 88.835 51.9855 89.4819 51.5935 90.048C51.1623 90.614 50.7704 91.0588 50.4568 91.3822C49.7512 91.9482 49.2808 92.2313 49.2808 92.2313Z" fill="#263238"/>
</svg>
